<?xml version="1.0" encoding="UTF-8" standalone="no"?>
<svg
   xmlns:dc="http://purl.org/dc/elements/1.1/"
   xmlns:cc="http://creativecommons.org/ns#"
   xmlns:rdf="http://www.w3.org/1999/02/22-rdf-syntax-ns#"
   xmlns:svg="http://www.w3.org/2000/svg"
   xmlns="http://www.w3.org/2000/svg"
   xmlns:sodipodi="http://sodipodi.sourceforge.net/DTD/sodipodi-0.dtd"
   xmlns:inkscape="http://www.inkscape.org/namespaces/inkscape"
   width="1432"
   height="936"
   id="svg2"
   version="1.1"
   inkscape:version="0.91 r13725"
   sodipodi:docname="2.svg">
  <metadata
     id="metadata1038">
    <rdf:RDF>
      <cc:Work
         rdf:about="">
        <dc:format>image/svg+xml</dc:format>
        <dc:type
           rdf:resource="http://purl.org/dc/dcmitype/StillImage" />
        <dc:title />
      </cc:Work>
    </rdf:RDF>
  </metadata>
  <defs
     id="defs1036" />
  <sodipodi:namedview
     pagecolor="#ffffff"
     bordercolor="#666666"
     borderopacity="1"
     objecttolerance="10"
     gridtolerance="10"
     guidetolerance="10"
     inkscape:pageopacity="0"
     inkscape:pageshadow="2"
     inkscape:window-width="1216"
     inkscape:window-height="616"
     id="namedview1034"
     showgrid="false"
     inkscape:zoom="0.30614958"
     inkscape:cx="195.01284"
     inkscape:cy="468"
     inkscape:window-x="0"
     inkscape:window-y="46"
     inkscape:window-maximized="0"
     inkscape:current-layer="svg2" />
  <path
     style="fill:#ab3d18;stroke:#000000;stroke-opacity:1;stroke-width:8;stroke-miterlimit:4;stroke-dasharray:none;stroke-linejoin:round"
     d="M924 74L925 75L924 74M737 176C735.41 170.961 730.849 170.364 726 170.025C718.109 169.473 709.814 167.786 702 169.928C695.874 171.608 689.068 176.043 685.16 181.054C682.358 184.647 680.708 190.662 675.982 192.204C672.396 193.373 667.757 191.067 664 191.005C653.184 190.824 641.77 190.099 631 191.104C624.552 191.706 620.525 195.31 615 197.992C611.76 199.565 607.519 200.277 604 201C601.719 205.172 597.396 207.535 594.17 211.015C587.882 217.794 582.926 225.509 579.258 233.999C577.669 237.679 576.168 241.998 576.018 246.015C575.892 249.4 577.024 254.722 574.397 257.4C571.197 260.662 564.13 260.159 560.015 261.688C556.686 262.925 554.377 265.624 551.385 267.411C546.117 270.557 540.201 272.456 536.863 278.104C533.255 284.207 534.122 297.102 535.147 304C535.942 309.344 541.83 314.621 534 317C531.072 308.186 520.681 318.563 518.303 323.174C515.104 329.377 519.525 334.229 520.181 340.08C520.608 343.88 518.012 348.784 518 353C503.901 353 485.215 354.606 485 373C472.155 374.014 453.543 373.92 451 390C452.3 389.35 452 389.853 452 388L451 403C459.297 405.622 452.81 412.794 448.95 416.715C436.706 429.152 424.216 450.611 428.278 468.83C429.342 473.603 433.881 479.986 436.688 483.996C439.401 487.873 443.713 491.682 447.576 494.412C452.145 497.642 455.349 496.75 457 503C447.451 508.167 445.291 527.4 450.823 536.061C453.822 540.756 461.436 540.739 459.677 547.961C458.847 551.374 455.571 553.046 454.027 556.039C452.174 559.632 452.527 566.138 453.394 570C454.197 573.578 456.557 578.627 458.919 581.455C462.472 585.709 467.71 588.905 468.646 595.075C469.32 599.519 465.022 602.523 463.456 606.272C460.734 612.787 459.932 621.042 461.38 627.996C462.819 634.909 471.084 639.443 477.424 641.272C479.564 641.889 482.628 641.261 484.397 642.773C488.595 646.361 484.688 655.905 487.09 660.71C489.77 666.071 495.907 664.937 499.157 669.228C503.696 675.223 499.852 682.589 502.603 688.737C505.856 696.005 516.85 694.465 521.682 699.318C526.797 704.454 523.306 712.569 532 715C530.794 712.635 529.636 710.58 529 708C530.799 710.085 532.638 713.315 535.263 714.411C539.343 716.115 543.884 714.538 547.891 717.089C550.736 718.901 551.462 721.946 553.559 724.37C558.469 730.048 564.85 731.995 572 732L572 735C601.218 735.603 630.693 737.074 659.985 735.981C663.483 735.851 666.551 734.297 670.015 734.054C690.072 732.65 710.891 733.732 731 734.004C735.494 734.065 739.562 735.71 744 735.957C752.082 736.407 759.971 734.831 768 735.015C779.387 735.275 790.495 737.133 802 736.996C829.681 736.667 857.274 734 885 734L885 737C894.202 736.968 902.596 733.026 912 733.029C925.739 733.035 937.282 738.568 950.989 733.454C954.04 732.316 956.387 729.861 959 728C956.153 724.618 948.886 721.056 944.41 722.917C939.165 725.098 935.678 729.651 930 731C930.305 721.62 940.552 721.17 943 713C944.635 713.545 944.455 713.365 945 715C946.874 710.534 944.776 702.772 950.325 700.273C951.911 699.559 954.311 700.027 956 700L954 711C965.472 709.729 973.823 698.755 975.944 687.999C976.975 682.774 973.645 671.98 968 671C967.509 666.016 966.148 658.457 971.279 655.178C973.419 653.811 976.417 654.32 978.247 652.397C981.341 649.146 978.68 644.246 984.056 642.573C989.856 640.766 995.295 644.283 1000.98 643.427C1005.31 642.776 1006.7 639.154 1009.48 636.329C1013.26 632.48 1018.08 631.283 1020.42 625.995C1022.15 622.074 1023.51 614.195 1022.52 610C1021.66 606.306 1017.42 602.024 1019.14 598.105C1022.01 591.549 1034.41 591.514 1039.74 587.113C1049.5 579.052 1049.48 561.017 1047.37 550C1046.77 546.818 1047.45 542.196 1045.06 539.628C1039.31 533.444 1034.44 543.66 1030.78 545.82C1028.67 547.062 1024.47 547.427 1023.26 544.698C1021.71 541.212 1030.04 536.942 1030.98 532.995C1032.41 526.999 1030.02 520.715 1031.36 515.078C1033.08 507.82 1037.71 517.488 1038.24 519.995C1038.67 522.04 1039.38 524.008 1040 526C1048.01 525.994 1050.85 523.275 1057.42 519.309C1059 518.358 1061 518.119 1062.46 516.991C1064.5 515.413 1065.6 512.438 1067.21 510.428C1071.66 504.882 1076.91 500.194 1078.54 493C1079.62 488.232 1079 482.862 1079 478C1079 473.419 1079.56 468.409 1078.08 464C1076.66 459.759 1073.31 454.502 1069.54 451.988C1066.94 450.258 1061.75 450.445 1060.86 446.775C1059.41 440.738 1066.11 432.263 1068.15 427C1069.27 424.093 1068.79 421.019 1069.21 418C1070.3 410.157 1071.88 403.026 1070.38 395C1069.68 391.246 1068.69 386.527 1066.56 383.299C1065.17 381.185 1062.61 380.27 1061.6 377.857C1060.58 375.415 1060.9 372.537 1060.04 370.004C1058.1 364.276 1054.12 357.507 1049.95 353.157C1044.06 347.018 1032.89 343.301 1029 336C1031.47 335.947 1034.41 336.122 1036.57 334.682C1038.97 333.077 1039.37 329.636 1039.71 327C1040.72 319.278 1035.69 310.32 1029.91 305.344C1026.94 302.786 1020.23 302.19 1019.37 297.891C1018.75 294.779 1020.92 291.914 1021.59 289C1022.52 284.926 1021.7 280.189 1020.78 276.17C1020.08 273.102 1019.2 269.224 1017.49 266.576C1005.01 247.201 984.712 247 964 247C964 243.944 964.558 240.177 963.401 237.286C957.992 223.764 942.217 222 930 222L930 231C924.009 230.067 923.906 226.364 920.441 222.274C918.343 219.797 915.654 218.874 914 216C910.519 216.219 902.351 216.566 899.603 214.227C897.865 212.747 898.19 210.174 897.731 208.17C896.643 203.429 895.015 200.052 895 195C891.601 193.092 889.919 189.782 886.957 187.278C884.691 185.362 881.6 184.58 879.509 182.491C876.536 179.519 876.194 175.84 871.982 173.944C868.36 172.313 865.437 173.75 861.95 172.899C858.667 172.098 856.358 169.208 852.985 168.39C842.408 165.822 829.833 165.297 819 166.054C812.763 166.49 806.418 171.585 800.09 170.603C796.978 170.121 794.572 167.207 791.826 165.805C783.468 161.536 775.545 158.834 766 160.21C760.781 160.962 754.313 163.556 750.184 166.819C745.68 170.38 743.024 175.159 737 176M604 191C602.752 190.315 602.452 190.251 601 190L601 186C602.949 186.936 603.55 187.392 605 189C607.162 182.404 597.406 184.884 601.448 189.971C602.015 190.684 603.297 190.766 604 191z"
     id="path600" />
  <path
     style="fill:#dfd3af; stroke:none;"
     d="M601 186L601 190L605 190C604.161 187.374 603.626 186.839 601 186M761.005 207.559C756.508 208.739 753.063 213.387 758.228 216.543C761.438 218.504 767.42 218.645 770.941 217.486C774.669 216.26 775.733 212.402 772.681 209.702C769.725 207.087 764.688 206.592 761.005 207.559M826.148 218.032C820.191 221.533 826.625 226.853 831.427 224.143C836.69 221.172 830.624 215.402 826.148 218.032M647 225C644.631 225.102 642.332 225.313 639.999 225.769C635.996 226.553 629.22 231.755 634.742 235.957C641.065 240.768 646.851 229.659 647 225M848 259C848.586 266.378 855.583 267.863 862 268C860.828 261.013 854.287 259.275 848 259M951.607 293.028C949.542 294.688 950.437 297.667 951.573 299.576C953.774 303.27 962.119 312.541 967.106 308.664C969.488 306.811 968.679 303.488 967.361 301.289C964.865 297.124 957.13 288.588 951.607 293.028M555.999 343.711C548.448 345.557 546.011 360.514 555.857 357.562C560.772 356.088 563.621 341.848 555.999 343.711z"
     id="path602" />
  <path
     style="fill:#30231b; stroke:none;"
     d="M714 516L714 514C701.478 510.195 685.906 511.027 676.295 500.671C672.312 496.379 668.496 490.587 666.684 485C664.849 479.345 664.431 470.083 658 468C658 474.259 659.822 479.879 660 486C649.04 483.492 642.112 474.42 637.156 465C636.092 462.978 634.061 453.348 631.17 453.921C628.044 454.541 629.235 460.064 629.85 462C631.494 467.177 635.221 471.846 636.571 477.015C637.552 480.77 637 485.15 637 489C637.002 514.939 648.557 538.586 670.911 552.245C679.298 557.371 685.589 561.428 696 559.786C706.264 558.167 711.791 544.298 710.574 535C709.641 527.871 705.747 519.356 714 516z"
     id="path604" />
  <path
     style="fill:#dfd3af; stroke:none;"
     d="M984.482 472.032C978.691 475.629 978.95 494.317 988.772 488.391C992.673 486.038 993.553 479.543 991.938 475.595C990.684 472.533 987.852 469.939 984.482 472.032M495 498L501 499C503.147 494.74 509.79 484.355 504.258 480.032C501.783 478.099 498.69 480.031 497.189 482.148C493.52 487.322 494.75 492.171 495 498z"
     id="path606" />
  <path
     style="fill:#ab3d18; stroke:none;"
     d="M640 494C641.822 489.658 640.348 485.577 644 482C638.43 480.749 640 490.5 640 494z"
     id="path608" />
  <path
     style="fill:#dfd3af; stroke:none;"
     d="M645 482C637.395 484.524 641.752 500.991 643.269 507C647.509 523.785 656.637 537.415 671 547.34C675.883 550.715 680.926 554.189 687 554.871C707.194 557.138 711.778 529.482 699.084 517.603C696.945 515.602 693.236 515.677 690.576 514.605C684.859 512.302 679.436 509.301 675.005 504.981C671.521 501.584 668.911 496.682 664.812 494.032C657.969 489.608 650.197 488.77 645 482z"
     id="path610" />
  <path
     style="fill:#ab3d18; stroke:none;"
     d="M645 483L646 484L645 483M646 484C648.122 486.37 650.072 487.758 653 489C650.911 486.348 649.199 485.086 646 484z"
     id="path612" />
  <path
     style="fill:#30231b; stroke:none;"
     d="M547 511C547.961 516.956 553.512 518.05 556.081 523.054C558.504 527.774 558.233 533.092 559.918 537.985C560.855 540.706 562.574 542.806 564.136 545.17C570.237 554.4 585.43 572.099 596.539 557.892C602.765 549.931 604.538 538.009 602.741 528.17C601.878 523.447 597.7 516.131 599.483 511.303C600.383 508.868 603.902 508.373 606 507.487C612.091 504.915 618.027 503.212 619 496C610.849 500.045 605.302 502.994 596 503C596.913 498.361 600.094 495.319 601.767 491.001C602.345 489.51 603.012 487.267 601.397 486.137C599.912 485.098 598.202 486.221 597.299 487.434C594.381 491.352 592.806 496.07 589.483 499.897C582.534 507.898 570.869 514.643 560 513.881C555.539 513.568 551.495 511.395 547 511z"
     id="path614" />
  <path
     style="fill:#ab3d18; stroke:none;"
     d="M655.667 489.333C655.222 489.778 656.278 489.722 656.333 489.667C656.778 489.222 655.722 489.278 655.667 489.333M659.667 491.333C659.222 491.778 660.278 491.722 660.333 491.667C660.778 491.222 659.722 491.278 659.667 491.333M661 492C662.248 492.685 662.548 492.749 664 493C662.752 492.315 662.452 492.251 661 492M664 493C665.139 494.015 665.612 494.309 667 495C666.02 493.217 666.092 493.406 664 493M641 495C641.001 502.023 642.241 508.218 644 515C645.484 510.162 642.963 499.667 641 495M667 496L668 497L667 496M669 499L670 500L669 499M670 500L671 501L670 500M653 502C655.669 503.89 657.959 505.406 660 508C660.087 504.023 656.492 502.707 653 502M672 502L673 503L672 502z"
     id="path616" />
  <path
     style="fill:#30231b; stroke:none;"
     d="M652.318 503.786C649.161 505.135 649.876 510.326 650.326 513C651.299 518.784 658.46 535.566 666.656 532.353C669.828 531.11 670.172 526.872 669.652 524C668.585 518.11 664.322 511.117 660.214 506.819C658.281 504.796 655.292 502.515 652.318 503.786z"
     id="path618" />
  <path
     style="fill:#ab3d18; stroke:none;"
     d="M673 503L674 504L673 503M674 504L675 505L674 504M675 505L676 506L675 505M649 506L649 514C650.161 511.23 650.161 508.77 649 506M676 506L677 507L676 506M677 507C678.45 508.608 679.052 509.064 681 510C679.55 508.392 678.949 507.936 677 507M585 508L592 512C590.256 508.832 588.565 508.269 585 508M662.333 508.667C662.278 508.722 662.222 509.778 662.667 509.333C662.722 509.278 662.778 508.222 662.333 508.667z"
     id="path620" />
  <path
     style="fill:#dfd3af; stroke:none;"
     d="M562 525C565.736 524.555 569.404 522.904 572.867 525.167C580.802 530.35 587.549 546.516 574 548C575.915 555.872 586.98 561.838 593.487 554.697C599.082 548.555 598.91 535.622 597.535 528C596.56 522.589 594.03 511.517 588.021 509.662C584.609 508.609 581.702 512.02 578.985 513.525C572.728 516.992 562.643 516.68 562 525z"
     id="path622" />
  <path
     style="fill:#ab3d18; stroke:none;"
     d="M583 510L584 511L583 510M577 513C579.462 513.697 580.665 513.11 583 512C580.726 511.591 579.219 512.212 577 513M663 511L664 512L663 511M683.667 511.333C683.222 511.778 684.278 511.722 684.333 511.667C684.778 511.222 683.722 511.278 683.667 511.333M665.333 512.667C665.278 512.722 665.222 513.778 665.667 513.333C665.722 513.278 665.778 512.222 665.333 512.667M685.667 512.333C685.222 512.778 686.278 512.722 686.333 512.667C686.778 512.222 685.722 512.278 685.667 512.333M687.667 513.333C687.222 513.778 688.278 513.722 688.333 513.667C688.778 513.222 687.722 513.278 687.667 513.333M593.333 514.667C593.278 514.722 593.222 515.778 593.667 515.333C593.722 515.278 593.778 514.222 593.333 514.667M650 514L650 517C650.696 515.446 650.696 515.554 650 514M645 515L645 518C645.696 516.446 645.696 516.554 645 515M666 515L667 519C667.393 517.076 667.146 516.641 666 515M691 515C693.052 515.874 694.747 515.953 697 516C694.948 515.126 693.253 515.047 691 515M571.667 516.333C571.222 516.778 572.278 516.722 572.333 516.667C572.778 516.222 571.722 516.278 571.667 516.333M699.333 516.667C699.278 516.722 699.222 517.778 699.667 517.333C699.722 517.278 699.778 516.222 699.333 516.667M568 517C569.248 517.685 569.548 517.749 571 518C569.752 517.315 569.452 517.251 568 517M594.333 517.667C594.278 517.722 594.222 518.778 594.667 518.333C594.722 518.278 594.778 517.222 594.333 517.667M651.333 517.667C651.278 517.722 651.222 518.778 651.667 518.333C651.722 518.278 651.778 517.222 651.333 517.667M561 525C562.236 522.665 563.072 520.839 565 519C561.14 518.133 561.1 521.939 561 525M647 518L647 521C647.696 519.446 647.696 519.554 647 518M700 518C700.684 519.58 700.805 519.777 702 521C701.316 519.42 701.195 519.223 700 518M595.333 519.667C595.278 519.722 595.222 520.778 595.667 520.333C595.722 520.278 595.778 519.222 595.333 519.667M648 521C648.684 522.58 648.805 522.777 650 524C649.316 522.42 649.195 522.223 648 521M653 521L654 522L653 521M669.333 521.667C669.278 521.722 669.222 522.778 669.667 522.333C669.722 522.278 669.778 521.222 669.333 521.667M596.333 522.667C596.278 522.722 596.222 523.778 596.667 523.333C596.722 523.278 596.778 522.222 596.333 522.667M654 522L655 526C655.553 523.992 655.303 523.668 654 522M567 523C568.506 523.683 569.315 523.826 571 524C569.494 523.317 568.685 523.174 567 523M571.667 524.333C571.222 524.778 572.278 524.722 572.333 524.667C572.778 524.222 571.722 524.278 571.667 524.333M597 524L597 528C597.71 526.24 597.71 525.76 597 524M670 524C669.796 527.201 668.953 529.949 668 533C670.746 530.311 671.502 527.622 670 524M703.333 524.667C703.278 524.722 703.222 525.778 703.667 525.333C703.722 525.278 703.778 524.222 703.333 524.667M562 525C563.248 525.685 563.548 525.749 565 526C563.752 525.315 563.452 525.251 562 525M573 525L574 526L573 525M574 526C574.545 527.635 574.365 527.455 576 528L576 526L574 526M704.333 527.667C704.278 527.722 704.222 528.778 704.667 528.333C704.722 528.278 704.778 527.222 704.333 527.667M651 528L652 529L651 528M657 528L658 529L657 528M598 529L598 544C599.74 539.852 599.74 533.148 598 529M658 529L659 530L658 529M653 530L654 531L653 530M705 530L705 533C705.696 531.446 705.696 531.554 705 530M660 531L661 532L660 531M654 532L655 533L654 532M661 532C663.308 533.759 665.092 533.917 668 534C665.749 532.911 663.465 532.481 661 532M579.333 533.667C579.278 533.722 579.222 534.778 579.667 534.333C579.722 534.278 579.778 533.222 579.333 533.667M656 534L657 535L656 534M580 535L581 539C581.393 537.076 581.146 536.64 580 535M657 535C657.545 536.635 657.365 536.455 659 537L659 535L657 535M706 535L706 540C706.83 537.97 706.83 537.03 706 535M659 537L660 538L659 537M661 539L662 540L661 539M662 540L663 541L662 540M582 541L582 545C582.71 543.24 582.71 542.76 582 541M663 541L664 542L663 541M664 542L665 543L664 542M665 543L666 544L665 543M705.333 543.667C705.278 543.722 705.222 544.778 705.667 544.333C705.722 544.278 705.778 543.222 705.333 543.667M666 544L667 545L666 544M597.333 545.667C597.278 545.722 597.222 546.778 597.667 546.333C597.722 546.278 597.778 545.222 597.333 545.667M667 545C668.223 546.195 668.42 546.316 670 547C668.777 545.805 668.58 545.684 667 545M579.667 546.333C579.222 546.778 580.278 546.722 580.333 546.667C580.778 546.222 579.722 546.278 579.667 546.333M596 547L595 554C596.663 551.565 597.078 549.773 596 547M703 547C702.014 548.479 702 548.203 702 550C703.289 548.557 703.401 548.766 703 547M701 550L702 551L701 550M574 551L575 552L574 551M575 552L576 553L575 552M680 553C681.458 554.081 682.248 554.436 684 555C682.457 553.733 681.952 553.511 680 553M686 555C690.501 556.889 695.734 556.22 700 554C695.896 552.858 690.458 554.987 686 555M577 554L578 555L577 554M578.667 555.333C578.222 555.778 579.278 555.722 579.333 555.667C579.778 555.222 578.722 555.278 578.667 555.333M593 555L594 556L593 555M592 556L593 557L592 556M581 557C583.308 558.759 585.092 558.917 588 559C585.748 557.911 583.465 557.481 581 557M588 557C589.248 557.685 589.549 557.749 591 558C589.752 557.315 589.451 557.251 588 557z"
     id="path624" />
  <path
     style="fill:#30231b; stroke:none;"
     d="M681 612C675.408 613.189 668.215 620.221 667.225 626.001C666.552 629.925 667.729 634.203 666.258 637.995C664.822 641.694 661.098 643.039 659.179 646.259C657.419 649.213 658.418 652.813 657.567 656C656.497 660.009 653.638 662.789 653 667C657.011 667 661.849 667.698 664.852 664.427C668.606 660.338 667.316 654.501 672.174 650.573C675.598 647.804 680.285 647.714 683.83 645.105C687.952 642.071 689.987 636.503 695.015 634.602C699.426 632.934 704.693 634.209 708.996 631.976C713.401 629.691 715.132 623.509 720.043 622.333C723.296 621.553 726.632 623.073 729.911 622.832C734.384 622.503 738.342 619.972 743 620.299C747.193 620.592 750.669 622.252 755 621.71C762.087 620.823 767.714 615.56 775 617.803C781.312 619.747 785.961 625.101 792 627.606C796.429 629.444 801.365 628.494 805.714 630.598C811.107 633.206 814.8 637.327 821 638C820.99 635.303 821.182 632.498 819.977 630C818.608 627.163 816.101 625.15 815.318 622C813.501 614.692 816.528 608.593 810.231 602.684C805.445 598.194 798.527 598.447 793.465 594.087C788.267 589.61 786.488 582.386 780.871 578.399C775.735 574.753 769.754 575.565 764 573.895C759.689 572.644 756.36 569.222 751.961 568.34C745.028 566.952 740.341 569.483 734 571.352C729.776 572.597 725.135 571.131 721 572.599C714.406 574.942 711.469 580.878 706.625 585.116C700.64 590.352 691.573 588.008 685.649 592.934C681.065 596.746 681.113 606.542 681 612z"
     id="path626" />
  <path
     style="fill:#ab3d18; stroke:none;"
     d="M740 576C745.628 575.006 749.601 576.721 755 578C751.24 575.158 743.688 571.78 740 576z"
     id="path628" />
  <path
     style="fill:#dfd3af; stroke:none;"
     d="M742 575.522C733.653 577.18 730.234 579.569 730.914 588C731.096 590.249 730.768 593.376 732.742 594.972C734.617 596.488 737.811 595.969 740 595.714C745.881 595.032 753.249 596.345 758.852 594.682C763.021 593.444 763.323 583.601 760.972 580.603C759.63 578.891 756.912 578.875 754.999 578.252C750.515 576.79 746.89 574.55 742 575.522z"
     id="path630" />
  <path
     style="fill:#ab3d18; stroke:none;"
     d="M736 576C737.248 576.685 737.548 576.749 739 577C737.752 576.315 737.452 576.251 736 576M734.667 577.333C734.223 577.777 735.278 577.722 735.333 577.667C735.778 577.222 734.722 577.278 734.667 577.333z"
     id="path632" />
  <path
     style="fill:#24c067; stroke:none;"
     d="M754.667 578.333C754.222 578.778 755.278 578.722 755.333 578.667C755.778 578.222 754.722 578.278 754.667 578.333z"
     id="path634" />
  <path
     style="fill:#dfd3af; stroke:none;"
     d="M518 617C520.159 618.275 521.292 620.585 523.414 621.806C526.571 623.625 529.516 621.311 529.758 617.985C530.173 612.267 520.72 603.586 518.318 612.034C517.872 613.603 518.019 615.393 518 617z"
     id="path640" />
  <path
     style="fill:#dfd3af; stroke:none;"
     d="M910 663C915.575 662.819 927.443 654.405 921.971 647.608C917.86 642.5 911.761 651.772 910.699 655.001C909.854 657.571 910.008 660.333 910 663z"
     id="path644" />
  <path
     style="fill:#30231b; stroke:none;"
     d="M310 661L310 666L314 666C313.188 663.218 312.547 662.373 310 661z"
     id="path646" />
</svg>
