<?xml version="1.0" encoding="UTF-8" standalone="no"?>
<svg
   xmlns:dc="http://purl.org/dc/elements/1.1/"
   xmlns:cc="http://creativecommons.org/ns#"
   xmlns:rdf="http://www.w3.org/1999/02/22-rdf-syntax-ns#"
   xmlns:svg="http://www.w3.org/2000/svg"
   xmlns="http://www.w3.org/2000/svg"
   xmlns:sodipodi="http://sodipodi.sourceforge.net/DTD/sodipodi-0.dtd"
   xmlns:inkscape="http://www.inkscape.org/namespaces/inkscape"
   width="1432"
   height="936"
   id="svg2"
   version="1.1"
   inkscape:version="0.91 r13725"
   sodipodi:docname="3.svg">
  <metadata
     id="metadata1052">
    <rdf:RDF>
      <cc:Work
         rdf:about="">
        <dc:format>image/svg+xml</dc:format>
        <dc:type
           rdf:resource="http://purl.org/dc/dcmitype/StillImage" />
      </cc:Work>
    </rdf:RDF>
  </metadata>
  <defs
     id="defs1050" />
  <sodipodi:namedview
     pagecolor="#ffffff"
     bordercolor="#666666"
     borderopacity="1"
     objecttolerance="10"
     gridtolerance="10"
     guidetolerance="10"
     inkscape:pageopacity="0"
     inkscape:pageshadow="2"
     inkscape:window-width="1446"
     inkscape:window-height="716"
     id="namedview1048"
     showgrid="false"
     inkscape:zoom="0.61229917"
     inkscape:cx="790.83355"
     inkscape:cy="451.62491"
     inkscape:window-x="0"
     inkscape:window-y="23"
     inkscape:window-maximized="0"
     inkscape:current-layer="svg2" />
  <path
     style="fill:#ab3c18;stroke:#000000;stroke-width:10;stroke-miterlimit:4;stroke-dasharray:none;stroke-opacity:1;stroke-linejoin:round"
     d="M924 74L925 75L924 74M758 171C752.391 158.035 726.403 157.761 716.043 165.224C711.384 168.58 709.521 176.575 703.996 178.343C700.894 179.335 697.185 177.138 693.985 177.018C683.079 176.612 671.005 177.744 662.58 185.2C660.92 186.669 658.485 188.237 657.642 190.375C656.477 193.331 657.935 197.847 658 201C655.573 200.504 652.656 199.127 650.17 199.713C647.588 200.322 646.019 202.627 643.155 202.397C634.62 201.709 627.035 196.194 618 196.015C606.49 195.788 591.37 200.245 582.055 207.133C578.982 209.405 578.049 212.961 575.353 215.398C573.263 217.287 570.192 217.051 568.015 218.893C564.481 221.886 563.667 226.048 561.573 229.911C560.196 232.452 558.097 234.487 556.721 237.039C553.8 242.458 551.341 248.806 551.04 255C550.792 260.114 552.411 267.16 549.566 271.7C546.385 276.777 541.282 277.425 536.286 279.523C532.554 281.09 528.928 284.35 526.015 287.093C520.622 292.173 515.105 300.461 514.133 308.004C512.875 317.771 517.372 328.317 518 338C515.608 337.815 513.686 337.693 512.069 335.682C510.168 333.317 509.46 328.864 505.815 328.466C501.929 328.042 498.253 332.736 496.133 335.424C492.434 340.114 493.63 343.709 492.965 349C492.647 351.524 490.817 353.507 490.353 356C489.604 360.024 490.989 364.86 491 369C485.198 367.209 485.018 362.391 485 357C479.867 358.441 476.763 362.78 472 365C471.369 369.591 468.96 373.507 468.224 378C467.226 384.091 468 390.834 468 397C461.461 393.848 462 388.456 462 382C451.701 383.033 447.946 390.048 442.533 397.561C439.821 401.326 436.392 403.995 436.145 409C435.913 413.708 439.861 416.653 439.958 421.015C440.043 424.813 437.76 428.019 438 432C429.566 434.572 424.073 448.855 424 457C418.472 458.617 420 466.301 420 471C420 485.197 419.469 497.442 427.435 509.926C431.367 516.087 436.41 520.363 443 523.514C446.547 525.21 455.56 528.975 456.894 533.06C457.555 535.087 455.843 536.423 453.977 536.458C451.182 536.511 448.874 534.291 446.005 534.435C440.515 534.712 438.023 542.556 437.194 547.134C435.69 555.451 440.89 567.655 448 572.074C452.532 574.891 459.228 574.987 462.111 580.134C463.454 582.533 462.725 585.422 463.338 588C464.755 593.962 468.762 601.722 475 603C474.872 605.332 474.358 611.677 470.37 609.829C467.189 608.354 462.341 602.046 460.799 598.999C459.341 596.119 458.071 592.067 454.143 591.832C449.439 591.55 450.861 601.388 451.649 604C454.34 612.924 460.361 617.225 469 619C469 628.435 466.506 639.841 469.419 648.91C471.311 654.799 477.495 657.445 479 664C482.933 664.598 485.391 667.165 489.09 668.277C493.228 669.521 499.298 667.641 502.397 671.318C505.604 675.125 503.253 681.357 504.279 685.829C506.116 693.839 516.504 699.718 524 698C522.555 693.474 519.721 690.001 517.232 686.001C514.82 682.123 511.717 677.779 512.323 672.997C512.598 670.832 514.201 665.416 517.367 667.752C521.061 670.478 519.555 676.956 521.419 680.714C526.49 690.939 534.459 699.473 546 701C546.817 704.938 546.657 711.729 541 708L538 709C539.546 716.461 541.994 720.279 550 721C551.873 733.416 562.818 732 573 732C597.534 732 621.735 734.428 646 736.089C658.959 736.977 671.705 733.436 685 734.039C688.739 734.209 692.284 735.594 696 735.737C702.56 735.99 709.363 734.925 716 735.004C743.781 735.334 772.104 736.182 800 734.961C807.324 734.64 814.673 733.31 822 733.129C837.49 732.746 853.408 734.025 869 734C898.316 733.953 927.606 733 957 733C957.624 725.846 962.043 716.026 958.99 709.059C956.62 703.651 946.033 706.722 946.546 700.025C946.888 695.56 952.887 694.877 955.985 693.062C962.978 688.964 968.113 683.191 971.765 676C973.107 673.359 973.82 668.34 977.114 667.346C981.625 665.985 981.31 673.014 984.317 674.382C987.251 675.717 991.866 674.135 995 674L994 671C1004.53 670.753 1012.1 663.872 1019.31 656.954C1021.63 654.727 1024.35 652.934 1025.77 649.946C1027.57 646.176 1026.44 642.08 1027.47 638.17C1029.06 632.125 1031.27 626.471 1030.82 620C1030.16 610.738 1024.03 598.982 1028.43 590.043C1031.63 583.543 1038.4 585.789 1043.16 581.971C1055.17 572.326 1066.99 556.781 1068 541L1071 541C1071 532.156 1073.29 519.529 1069.81 511.285C1065.81 501.807 1054.77 494.268 1055.21 483C1055.48 476.145 1055.94 468.965 1059.63 463.001C1061.67 459.713 1064.67 458.048 1067.28 455.367C1072.47 450.025 1076.53 442.35 1077.74 435C1078.53 430.214 1078.9 422.743 1076.97 418.209C1075.44 414.612 1072.13 412.94 1071 409C1068.34 408.263 1064.51 407.463 1063.13 404.725C1060.63 399.738 1067.11 392.977 1071 391C1072.49 383.769 1075.52 377.567 1074.91 370C1074.45 364.315 1071.17 359.745 1071 354C1065.01 350.952 1062.05 343.92 1055.58 341.013C1052.47 339.619 1048.5 341.689 1046.74 337.848C1044.58 333.131 1047.25 327.721 1047.82 323C1048.74 315.306 1047.87 306.649 1045.51 299.286C1043.16 291.957 1038.02 289.096 1033.73 283.585C1032.07 281.456 1032.31 278.685 1030.98 276.424C1028.97 273.019 1025.33 269.46 1022.54 266.63C1015.3 259.259 1001.46 251.128 991 250.105C983.968 249.417 977.833 251.32 971 252C970.446 247.641 970.218 241.807 966.467 238.858C960.752 234.365 951.589 238.721 945.573 233.772C941.841 230.703 943.927 225.978 942.397 222.043C941.281 219.173 938.551 217.674 936.438 215.625C933.537 212.812 931.359 209.321 927.961 207.029C919.942 201.619 907.41 199.949 898 201.133C894.536 201.568 890.621 205.059 887.148 204.183C883.234 203.195 884.536 197.943 882.976 195.209C880.755 191.317 876.215 189.312 872 189L872 192L867 192L867 189L858 189C857.062 181.577 857.628 174.6 850 171L852 170C847.672 166.37 843.04 160.495 837.675 158.495C832.931 156.727 827.854 157.39 823 158L823 154C807.406 154 791.843 154.149 777 159.684C769.895 162.334 765.41 169.065 758 171z"
     id="path606" />
  <path
     style="fill:#ddd2ae; stroke:none;"
     d="M742 215C740.632 206.548 726.636 203 720.323 208.703C715.425 213.126 721.933 216.552 726 216.906C727.965 217.077 730.036 217.078 732 216.896C735.401 216.581 738.592 215.339 742 215M790 218C792.877 217.682 794.334 217.38 796 215C792.993 215.221 791.635 215.455 790 218M607 252C613.513 251.697 615.624 248.682 619.96 244.29C621.807 242.42 624.007 239.209 621.968 236.608C620.25 234.417 617.037 235.701 615.015 236.635C608.356 239.712 607.023 245.226 607 252M806.148 240.743C802.367 242.433 802.911 247.074 805.434 249.682C807.93 252.263 813.527 252.863 816.772 251.397C820.162 249.865 820.008 245.93 817.678 243.533C814.951 240.728 809.876 239.077 806.148 240.743M933 275C932.583 268.72 929.504 264.083 923.996 260.943C921.721 259.646 918.016 258.096 915.608 260.029C913.177 261.979 914.88 265.875 916.148 267.982C919.953 274.298 926.321 274.995 933 275M547 380C549.389 374.929 550.983 371.782 551 366C548.986 365.282 546.466 363.812 544.29 364.657C540.012 366.32 538.461 374.924 541.177 378.397C542.555 380.158 545.018 379.934 547 380M986 447C995.441 446.282 997.284 430.915 991.101 424.743C985.817 419.468 982.037 427.654 982.008 432C981.995 434.01 982.087 436.027 982.519 437.996C983.215 441.173 984.852 443.992 986 447z"
     id="path608" />
  <path
     style="fill:#30221b; stroke:none;"
     d="M708 518L716 516C714.339 511.276 710.28 512.359 706 511.871C698.907 511.063 687.018 510.664 683 504C676.969 503.155 673.702 497.941 670.79 492.95C666.09 484.894 663.197 478.561 663 469C654.387 470.437 659.83 480.173 660 486C650.045 483.051 640.774 474.658 636.866 464.999C636.02 462.909 634.299 453.301 631.17 453.921C628.401 454.47 629.09 459.154 629.559 461C631.581 468.963 636.954 474.334 636.999 483C637.063 495.102 637.487 508.602 642.492 519.911C646.962 530.011 654.43 539.267 662.464 546.785C665.035 549.191 667.957 550.441 670.911 552.245C680.476 558.09 694.927 565.915 704.606 554.87C707.491 551.578 709.246 546.192 710.366 542C712.37 534.496 709.007 525.477 708 518z"
     id="path610" />
  <path
     style="fill:#ab3c18; stroke:none;"
     d="M640 494C641.822 489.658 640.348 485.577 644 482C638.43 480.749 640 490.5 640 494z"
     id="path612" />
  <path
     style="fill:#ddd2ae; stroke:none;"
     d="M645 482C636.9 484.688 642.25 502.743 643.768 509C647.759 525.442 658.192 538.511 672 548.024C678.885 552.767 687.311 556.922 695.985 554.682C710.197 551.011 707.461 525.442 699.084 517.603C696.945 515.602 693.236 515.677 690.576 514.605C684.859 512.302 679.436 509.301 675.005 504.981C671.521 501.584 668.911 496.682 664.812 494.032C657.969 489.608 650.197 488.77 645 482z"
     id="path614" />
  <path
     style="fill:#ab3c18; stroke:none;"
     d="M645 483L646 484L645 483M646 484C648.122 486.37 650.072 487.758 653 489C650.911 486.348 649.199 485.086 646 484z"
     id="path616" />
  <path
     style="fill:#30221b; stroke:none;"
     d="M547 511C547.961 516.956 553.512 518.05 556.081 523.054C558.618 527.996 558.797 533.765 560.529 538.961C564.535 550.979 584.206 573.664 596.539 557.892C602.765 549.931 604.538 538.009 602.741 528.17C601.878 523.447 597.7 516.131 599.483 511.303C600.383 508.868 603.902 508.373 606 507.487C611.662 505.096 617.43 503.446 619 497C610.622 499.163 605.069 502.994 596 503C597.179 498.674 600.201 495.217 601.771 491.005C602.33 489.504 603.021 487.273 601.397 486.137C599.913 485.098 598.201 486.219 597.299 487.434C594.048 491.813 593.141 496.829 588.956 500.829C581.477 507.978 570.763 514.635 560 513.881C555.539 513.568 551.495 511.395 547 511z"
     id="path618" />
  <path
     style="fill:#ab3c18; stroke:none;"
     d="M655.667 489.333C655.222 489.778 656.278 489.722 656.333 489.667C656.778 489.222 655.722 489.278 655.667 489.333M659.667 491.333C659.222 491.778 660.278 491.722 660.333 491.667C660.778 491.222 659.722 491.278 659.667 491.333M661 492C662.248 492.685 662.548 492.749 664 493C662.752 492.315 662.452 492.251 661 492M664 493C665.139 494.015 665.612 494.309 667 495C666.02 493.217 666.092 493.406 664 493M641 495C641.001 502.023 642.241 508.218 644 515C645.484 510.162 642.963 499.667 641 495M667 496L668 497L667 496M669 499L670 500L669 499M670 500L671 501L670 500M651 504C655.273 503.457 657.351 504.668 660 508C660.097 503.569 654.129 500.48 651 504M672 502L673 503L672 502z"
     id="path620" />
  <path
     style="fill:#30221b; stroke:none;"
     d="M652.318 503.786C649.161 505.135 649.876 510.326 650.326 513C651.273 518.633 658.57 535.524 666.656 532.353C669.828 531.109 670.172 526.872 669.652 524C668.585 518.11 664.322 511.117 660.214 506.819C658.281 504.796 655.292 502.515 652.318 503.786z"
     id="path622" />
  <path
     style="fill:#ab3c18; stroke:none;"
     d="M673 503L674 504L673 503M674 504L675 505L674 504M649 505L649 514C650.256 511.006 650.256 507.994 649 505M676 506L677 507L676 506M677 507C678.45 508.608 679.052 509.064 681 510C679.55 508.392 678.949 507.936 677 507M585 508L592 512C590.256 508.832 588.565 508.269 585 508M662.333 508.667C662.278 508.722 662.222 509.778 662.667 509.333C662.722 509.278 662.778 508.222 662.333 508.667z"
     id="path624" />
  <path
     style="fill:#ddd2ae; stroke:none;"
     d="M562 525C565.736 524.555 569.404 522.904 572.867 525.167C580.802 530.35 587.549 546.516 574 548C575.915 555.872 586.98 561.838 593.487 554.697C599.082 548.555 598.91 535.622 597.535 528C596.56 522.589 594.03 511.517 588.021 509.662C584.609 508.609 581.702 512.02 578.985 513.525C572.728 516.992 562.643 516.68 562 525z"
     id="path626" />
  <path
     style="fill:#ab3c18; stroke:none;"
     d="M583 510L584 511L583 510z"
     id="path628" />
  <path
     style="fill:#ddd2ae; stroke:none;"
     d="M502 512C500.43 511.727 498.643 511.206 497.034 511.487C487.666 513.124 495.992 531.936 502.639 521.852C503.374 520.736 503.397 519.275 503.272 518.004C503.077 516.01 502.334 513.984 502 512z"
     id="path630" />
  <path
     style="fill:#ab3c18; stroke:none;"
     d="M577 513C579.462 513.697 580.665 513.11 583 512C580.63 511.411 579.293 512.045 577 513M663 511L664 512L663 511M683.667 511.333C683.222 511.778 684.278 511.722 684.333 511.667C684.778 511.222 683.722 511.278 683.667 511.333M665.333 512.667C665.278 512.722 665.222 513.778 665.667 513.333C665.722 513.278 665.778 512.222 665.333 512.667M685.667 512.333C685.222 512.778 686.278 512.722 686.333 512.667C686.778 512.222 685.722 512.278 685.667 512.333M687.667 513.333C687.222 513.778 688.278 513.722 688.333 513.667C688.778 513.222 687.722 513.278 687.667 513.333M593.333 514.667C593.278 514.722 593.222 515.778 593.667 515.333C593.722 515.278 593.778 514.222 593.333 514.667M650 514L650 517C650.696 515.446 650.696 515.554 650 514M691 514C692.734 516.003 694.355 515.923 697 516C694.987 514.775 693.341 514.355 691 514M645 515L645 518C645.696 516.446 645.696 516.554 645 515M666 515L667 519C667.393 517.076 667.146 516.641 666 515M571.667 516.333C571.222 516.778 572.278 516.722 572.333 516.667C572.778 516.222 571.722 516.278 571.667 516.333M699.333 516.667C699.278 516.722 699.222 517.778 699.667 517.333C699.722 517.278 699.778 516.222 699.333 516.667M568 517C569.248 517.685 569.548 517.749 571 518C569.752 517.315 569.452 517.251 568 517M594.333 517.667C594.278 517.722 594.222 518.778 594.667 518.333C594.722 518.278 594.778 517.222 594.333 517.667M651.333 517.667C651.278 517.722 651.222 518.778 651.667 518.333C651.722 518.278 651.778 517.222 651.333 517.667M561 525C562.236 522.665 563.072 520.839 565 519C561.14 518.133 561.1 521.939 561 525M647 518L647 521C647.696 519.446 647.696 519.554 647 518M700 518C700.684 519.58 700.805 519.777 702 521C701.316 519.42 701.195 519.223 700 518M595 519L596 524C596.791 521.693 596.475 520.935 595 519M648 521C648.684 522.58 648.805 522.777 650 524C649.316 522.42 649.195 522.223 648 521M653 521L654 522L653 521M669.333 521.667C669.278 521.722 669.222 522.778 669.667 522.333C669.722 522.278 669.778 521.222 669.333 521.667M654 522L655 526C655.553 523.992 655.303 523.668 654 522M567 523C568.506 523.683 569.315 523.826 571 524C569.494 523.317 568.685 523.174 567 523M571.667 524.333C571.222 524.778 572.278 524.722 572.333 524.667C572.778 524.222 571.722 524.278 571.667 524.333M597 524L597 528C597.71 526.24 597.71 525.76 597 524M670 524C669.796 527.201 668.953 529.949 668 533C670.746 530.311 671.502 527.622 670 524M703.333 524.667C703.278 524.722 703.222 525.778 703.667 525.333C703.722 525.278 703.778 524.222 703.333 524.667M562 525C563.248 525.685 563.548 525.749 565 526C563.752 525.315 563.452 525.251 562 525M573 525L574 526L573 525M574 526C574.545 527.635 574.365 527.455 576 528L576 526L574 526M704.333 527.667C704.278 527.722 704.222 528.778 704.667 528.333C704.722 528.278 704.778 527.222 704.333 527.667M657 528C657.545 529.635 657.365 529.455 659 530L659 528L657 528M598 529L598 544C599.74 539.852 599.74 533.148 598 529M653 530L654 531L653 530M705 530L705 533C705.696 531.446 705.696 531.554 705 530M660 531L661 532L660 531M654 532L655 533L654 532M661 532C663.308 533.759 665.092 533.917 668 534C665.749 532.911 663.465 532.481 661 532M579.333 533.667C579.278 533.722 579.222 534.778 579.667 534.333C579.722 534.278 579.778 533.222 579.333 533.667M656 534L657 535L656 534M580 535L581 539C581.393 537.076 581.146 536.64 580 535M657 535C657.545 536.635 657.365 536.455 659 537L659 535L657 535M706 535L706 540C706.83 537.97 706.83 537.03 706 535M659 537L660 538L659 537M661 539L662 540L661 539M662 540L663 541L662 540M582 541L582 545C582.71 543.24 582.71 542.76 582 541M663 541L664 542L663 541M664 542L665 543L664 542M665 543L666 544L665 543M705.333 543.667C705.278 543.722 705.222 544.778 705.667 544.333C705.722 544.278 705.778 543.222 705.333 543.667M666 544L667 545L666 544M597.333 545.667C597.278 545.722 597.222 546.778 597.667 546.333C597.722 546.278 597.778 545.222 597.333 545.667M667 545C668.223 546.195 668.42 546.316 670 547C668.777 545.805 668.58 545.684 667 545M579.667 546.333C579.222 546.778 580.278 546.722 580.333 546.667C580.778 546.222 579.722 546.278 579.667 546.333M596 547L595 554C596.663 551.565 597.078 549.773 596 547M703 547C702.014 548.479 702 548.203 702 550C703.289 548.557 703.401 548.766 703 547M701 550L702 551L701 550M574 551L575 552L574 551M575 552L576 553L575 552M680 553C681.458 554.081 682.248 554.436 684 555C682.457 553.733 681.952 553.511 680 553M699 553L700 554L699 553M577 554L578 555L577 554M578.667 555.333C578.222 555.778 579.278 555.722 579.333 555.667C579.778 555.222 578.722 555.278 578.667 555.333M593 555L594 556L593 555M686 555C688.89 556.213 691.874 555.998 695 556C692.11 554.787 689.126 555.002 686 555M592 556L593 557L592 556M581 557C583.308 558.759 585.092 558.917 588 559C585.748 557.911 583.465 557.481 581 557M588 557C589.248 557.685 589.549 557.749 591 558C589.752 557.315 589.451 557.251 588 557z"
     id="path632" />
  <path
     style="fill:#30221b; stroke:none;"
     d="M649 691L654 691C656.696 681.948 664.78 680.099 670.61 673.787C673.389 670.777 674.361 666.123 678.105 664.027C681.955 661.872 686.926 662.918 690.91 660.711C694.708 658.608 696.933 654.33 701.039 652.738C705.666 650.945 710.923 652.974 715.576 651.235C720.377 649.441 722.809 644.405 727.209 642.606C730.788 641.144 735.258 643.061 739 642.896C746.4 642.57 753.555 639.043 761 640.214C765.584 640.935 768.609 644.645 773 645.686C777.792 646.822 783.143 644.905 787.83 646.563C791.081 647.714 793.317 650.716 796.425 652.171C800.042 653.864 804.276 653.507 808 654.875C814.07 657.105 820.246 661.281 826.011 664.325C828.876 665.838 834.98 673.208 838.393 670.914C841.082 669.107 839.171 663.502 838.753 661C837.575 653.945 834.119 651.054 831.022 645C829.398 641.824 828.716 637.485 828 634C822.147 631.411 816.167 627.641 812.853 622C810.042 617.214 809.028 611.687 805.161 607.394C801.058 602.838 793.027 601.919 788.043 598.072C783.519 594.579 782.281 588.877 777.945 585.314C774.456 582.447 770.265 582.741 766.17 581.545C762.244 580.398 758.914 577.693 755 576.549C748.981 574.788 743.652 577.964 738 579.391C733.17 580.611 727.851 579.115 723.171 581.032C719.604 582.494 717.583 586.074 714.87 588.621C710.446 592.773 705.019 595.9 701.109 600.591C699.076 603.03 698.467 606.234 696.441 608.61C692.735 612.956 686.358 614.209 682.568 618.299C679.785 621.302 678.584 625.684 676.1 628.985C672.568 633.68 667.002 637.389 664.843 643.004C663.364 646.851 664.732 651.179 662.836 654.911C661.668 657.209 659.563 658.849 658.299 661.089C656.417 664.426 656.127 668.476 654.671 672C651.879 678.759 649.324 683.451 649 691z"
     id="path634" />
  <path
     style="fill:#ddd2ae; stroke:none;"
     d="M735 588C734.703 590.368 733.722 593.461 734.643 595.772C736.655 600.821 746.754 599 751 599C754.146 599 760.745 600.217 762.972 597.397C769.575 589.032 752.921 582.24 747 583.533C742.777 584.455 739.213 587.037 735 588z"
     id="path638" />
  <path
     style="fill:#ab3c18; stroke:none;"
     d="M753.667 583.333C753.223 583.777 754.278 583.722 754.333 583.667C754.778 583.222 753.722 583.278 753.667 583.333M756 584L757 585L756 584M757 585L758 586L757 585M736 587C737.248 587.685 737.548 587.749 739 588C737.752 587.315 737.452 587.251 736 587M759.667 587.333C759.223 587.777 760.278 587.722 760.333 587.667C760.778 587.222 759.722 587.278 759.667 587.333M763.333 588.667C763.278 588.722 763.222 589.778 763.667 589.333C763.722 589.278 763.778 588.222 763.333 588.667M734 589L734 592C734.696 590.446 734.696 590.554 734 589M735.667 598.333C735.222 598.778 736.278 598.722 736.333 598.667C736.778 598.222 735.722 598.278 735.667 598.333M738 599C744.928 601.907 755.503 600 763 600C756.072 597.093 745.497 599 738 599z"
     id="path640" />
  <path
     style="fill:#ddd2ae; stroke:none;"
     d="M940.995 610.722C936.786 611.99 932.919 615.792 931.657 619.997C930.414 624.143 932.908 628.564 937.711 627.446C942.431 626.347 945.811 620.422 946.59 616.005C947.286 612.062 945.015 609.512 940.995 610.722z"
     id="path644" />
  <path
     style="fill:#ddd2ae; stroke:none;"
     d="M534 643C534.119 648.749 534.956 654.465 540.465 657.517C542.909 658.871 546.648 659.606 548.678 657.106C554.311 650.172 538.8 643.435 534 643z"
     id="path648" />
</svg>
