<?xml version="1.0" encoding="UTF-8" standalone="no"?>
<svg
   xmlns:dc="http://purl.org/dc/elements/1.1/"
   xmlns:cc="http://creativecommons.org/ns#"
   xmlns:rdf="http://www.w3.org/1999/02/22-rdf-syntax-ns#"
   xmlns:svg="http://www.w3.org/2000/svg"
   xmlns="http://www.w3.org/2000/svg"
   xmlns:sodipodi="http://sodipodi.sourceforge.net/DTD/sodipodi-0.dtd"
   xmlns:inkscape="http://www.inkscape.org/namespaces/inkscape"
   width="1432"
   height="936"
   id="svg2"
   version="1.1"
   inkscape:version="0.91 r13725"
   sodipodi:docname="4.svg">
  <metadata
     id="metadata962">
    <rdf:RDF>
      <cc:Work
         rdf:about="">
        <dc:format>image/svg+xml</dc:format>
        <dc:type
           rdf:resource="http://purl.org/dc/dcmitype/StillImage" />
      </cc:Work>
    </rdf:RDF>
  </metadata>
  <defs
     id="defs960" />
  <sodipodi:namedview
     pagecolor="#ffffff"
     bordercolor="#666666"
     borderopacity="1"
     objecttolerance="10"
     gridtolerance="10"
     guidetolerance="10"
     inkscape:pageopacity="0"
     inkscape:pageshadow="2"
     inkscape:window-width="1079"
     inkscape:window-height="566"
     id="namedview958"
     showgrid="false"
     inkscape:zoom="0.21648045"
     inkscape:cx="716"
     inkscape:cy="468"
     inkscape:window-x="0"
     inkscape:window-y="23"
     inkscape:window-maximized="0"
     inkscape:current-layer="svg2" />
  <path
     style="fill:#ab3c17;stroke:#000000;stroke-opacity:1;stroke-width:8;stroke-miterlimit:4;stroke-dasharray:none"
     d="M924 74L925 75L924 74M708 182C711.741 183.701 713.53 186.206 715 190C709.945 189.85 706.645 186.789 701.911 186.133C696.918 185.442 691.729 188.149 687.13 187.377C679.754 186.137 671.76 182.918 664 185.589C660.459 186.807 656.706 189.99 654.588 193.039C653.029 195.282 652.753 199.307 649.772 200.212C647.617 200.867 645.118 199.663 643 199.325C636.945 198.357 628.378 197.969 622.715 200.479C620.872 201.296 618.141 202.22 617.256 204.219C615.923 207.232 620.201 208.212 621.867 209.583C624.058 211.385 624.588 213.342 625 216C619.756 215.731 615.879 213.094 610.911 211.96C603.991 210.38 596.057 210.606 589 211.089C575.387 212.022 560.306 216.656 549.17 224.731C545.018 227.742 542.555 232.145 538.661 235.161C535.581 237.545 531.658 238.464 528.579 240.978C519.427 248.452 512.98 258.394 507.985 269C505.798 273.642 503.789 280.855 504.189 286C504.552 290.673 507.412 296.215 505.397 300.852C503.702 304.75 495.579 305.348 492.09 307.884C487.767 311.028 484.291 318.98 482.62 324.004C479.743 332.65 479.146 343.052 480.167 351.999C480.549 355.348 484.177 361.54 482.684 364.627C481.544 366.984 479.47 365.181 478.463 363.848C475.487 359.911 473.881 357.749 469.729 362.074C465.056 366.943 461.97 373.112 462.129 380C462.241 384.85 464.028 390.101 462.682 394.938C461.049 400.807 454.497 396.076 451.318 399.893C447.916 403.979 450.554 413.041 450 418C452.953 421.838 454.849 430.072 454.257 434.98C453.627 440.208 449.256 438.893 446.648 435.981C445.619 434.832 444.822 433.288 444 432C426.548 433.14 418.475 450.088 418.044 466C417.927 470.32 420.579 474.78 419.664 478.985C418.596 483.89 413.65 487.908 412 493C417.457 496.551 412.708 502.911 412.129 508C410.98 518.084 411.634 530.185 417.214 538.961C419.956 543.273 425.858 548.905 430.514 551.157C435.442 553.542 444.331 554.135 446.744 560.321C447.894 563.268 444.826 565.578 442.154 565.397C437.068 565.051 424.117 557.798 426.283 568.989C426.83 571.814 428.769 573.782 430.2 576.17C433.931 582.396 437.628 587.855 443.17 592.729C445.76 595.008 449.848 595.966 451.436 599.214C453.771 603.988 453.762 609.235 456.87 613.907C458.294 616.047 462.221 618.346 462.458 621.032C462.688 623.628 459.541 623.225 458.049 622.512C454.309 620.726 450.914 616.53 449 613C448.221 614.769 448.088 616.036 448 618L445 618C445.06 624.713 446.629 631.441 454 633C454.542 636.501 456.81 639.415 456.899 643.004C456.984 646.439 455.418 649.611 455.104 653C454.138 663.431 456.904 671.476 464.09 678.985C466.374 681.371 468.797 683.589 472 684.606C476.474 686.025 481.363 685.997 486 686C486.499 693.751 492.175 705.704 499.171 709.697C501.472 711.01 509.901 714.476 511.289 710.667C513.228 705.341 504.965 697.298 502.859 692.83C500.047 686.867 501 679.402 501 673C513.603 674.581 509.68 685.995 514.648 694.772C516.152 697.43 519.335 697.856 520.988 700.302C522.431 702.438 522.134 705.373 524.434 706.973C526.979 708.744 530.341 707.869 532.664 710.318C538.437 716.404 529.341 718.499 525 718C526.353 731.203 539.835 733.472 551 733.961C578.692 735.173 606.389 733.866 634 734.001C639.144 734.026 643.915 735.878 648.985 735.941C652.498 735.985 655.537 734.104 659.015 734.147C662.738 734.193 666.261 735.778 670 735.96C686.253 736.75 702.727 736 719 736C732.03 736 744.982 733.539 757.996 734.019C765.69 734.302 773.091 737 781 737C788.613 737 795.568 734.963 803 734.129C813.074 732.998 823.863 733.932 834 734.001C839.126 734.036 843.027 736.775 848.004 736.981C857.802 737.386 867.237 734.074 877 734.005C904.296 733.812 931.644 735.537 959 733.957C967.903 733.442 968.108 724.289 977 724C978.277 717.279 980.08 712.048 979.996 705C979.954 701.439 978.04 696.4 979.326 693.059C980.339 690.428 982.565 689.694 985 689L985 695C989.765 693.761 993.235 690.239 998 689C1000.24 680.688 1004.05 675.088 1004 666.001C1003.98 662.82 1004.17 657.992 999.985 657.453C995.981 656.937 994.901 661.441 991.791 662.789C988.834 664.069 984.177 662.145 981 662C984.723 657.077 990.269 654.234 994.15 649.621C998.016 645.026 998.216 639.95 1005 639C1005.23 646.07 1011.42 649.186 1017.99 645.821C1021.87 643.829 1025.56 639.025 1027.15 635C1028.24 632.214 1027.11 626.874 1030.3 625.326C1033.36 623.846 1035.63 627.945 1038.75 626.915C1041.01 626.169 1043.06 623.946 1045.01 622.623C1049.76 619.406 1054.83 616.408 1058.66 612.074C1072.82 596.042 1078.34 569.269 1068.88 549.997C1065.55 543.21 1064.73 535.171 1056 534C1054.95 527.796 1053.03 523.211 1060 519.928C1064.01 518.046 1069.97 518.077 1073.33 515.397C1077.5 512.08 1079.99 506.642 1082.48 502.093C1084.07 499.188 1086.71 496.966 1088.01 493.907C1091.22 486.335 1091.63 476.042 1090.58 468C1089.59 460.487 1090.66 452.316 1088.35 445C1087.31 441.717 1084.96 439.048 1083.36 436.039C1081.24 432.045 1078.29 426.073 1073 425.802C1069.03 425.599 1065.35 430.254 1062 432L1062 422C1067.29 420.307 1069.05 414.714 1071.26 410C1077.57 396.478 1074.92 372.609 1058 368C1054.95 372.496 1051.24 368.24 1051.1 363.999C1050.9 357.546 1054.79 351.499 1054.98 345C1055.33 333.149 1052.78 323.811 1048.43 312.985C1047.3 310.17 1047.02 307.004 1045.35 304.428C1041.77 298.902 1035.94 294.101 1031.59 289.133C1026.51 283.328 1005.49 270.182 1005 285C995.525 284.268 997.853 274.027 996.787 267C995.946 261.453 992.787 254.575 988.54 250.82C973.367 237.404 959.589 221.331 938 219.171C932.318 218.602 925.622 218.416 920 219.468C916.633 220.097 913.449 221.704 910 221.877C901.322 222.311 902.827 216.02 903 210C899.366 210.043 895.487 212.107 892.089 211.857C887.252 211.5 882.975 205.326 879.486 202.595C874.043 198.333 867.477 200.219 864 193L838 194C836.483 196.918 835.107 197.922 832 199C831.389 195.71 831.622 191.392 830.012 188.44C825.287 179.778 814.303 174.951 806.299 170.661C801.556 168.119 797.43 164.562 792 163.39C787.106 162.334 782.729 164.657 778.039 164.183C774.685 163.844 772.284 160.955 768.985 160.278C762.123 158.868 754.854 160.658 748 160.961C737.435 161.427 729.227 165.378 720 170.502C714.809 173.384 709.712 175.942 708 182z"
     id="path546" />
  <path
     style="fill:#daceac; stroke:none;"
     d="M689 221C691.992 221 695.018 221.119 698 220.83C700.487 220.589 704.373 220.465 706.397 218.825C708.874 216.816 708.237 212.184 705.682 210.573C701.697 208.061 689.661 209.331 687.657 214.26C686.782 216.414 688.289 219.004 689 221M783 250C789.917 249.999 795.725 250.289 796 242C791.021 240.343 781.681 235.893 782.188 244.98C782.282 246.662 782.694 248.349 783 250M885.148 243.873C880.553 245.908 883.558 250.172 885.595 252.935C888.694 257.139 895.287 261.094 900.678 258.397C903.699 256.886 902.242 253.392 900.566 251.44C897.51 247.883 890.23 241.622 885.148 243.873M578 273C587.241 272.526 593.716 266.417 594 257C583.601 257.661 578.036 262.536 578 273M535 384C532.665 384.026 530.235 383.915 528.039 384.858C523.396 386.85 520.234 393.047 521.742 397.981C523.975 405.282 530.327 401.935 532.883 396.985C533.699 395.402 534.391 393.755 534.726 392C535.221 389.405 535 386.629 535 384M978 409C988.015 408.881 985.992 401.852 985 394C983.024 393.639 980.383 392.763 978.432 393.643C973.456 395.887 977.159 405.319 978 409z"
     id="path548" />
  <path
     style="fill:#daceac; stroke:none;"
     d="M501.133 545.047C495.126 548.395 497.732 565.351 505.867 560.802C511.92 557.416 508.784 540.783 501.133 545.047z"
     id="path570" />
  <path
     style="fill:#daceac; stroke:none;"
     d="M949.004 579.008C945.771 580.364 942.781 583.474 942.247 587C941.569 591.474 944.571 594.583 948.971 592.753C952.13 591.439 955.74 587.183 956.303 583.719C956.978 579.565 952.318 577.617 949.004 579.008z"
     id="path578" />
  <path
     style="fill:#30221b; stroke:none;"
     d="M1145 596L1143 604L1150 604C1149.05 600.225 1148.96 597.314 1145 596z"
     id="path586" />
</svg>
