<?xml version="1.0" encoding="UTF-8" standalone="no"?>
<svg
   xmlns:dc="http://purl.org/dc/elements/1.1/"
   xmlns:cc="http://creativecommons.org/ns#"
   xmlns:rdf="http://www.w3.org/1999/02/22-rdf-syntax-ns#"
   xmlns:svg="http://www.w3.org/2000/svg"
   xmlns="http://www.w3.org/2000/svg"
   xmlns:sodipodi="http://sodipodi.sourceforge.net/DTD/sodipodi-0.dtd"
   xmlns:inkscape="http://www.inkscape.org/namespaces/inkscape"
   width="1432"
   height="936"
   id="svg2"
   version="1.1"
   inkscape:version="0.91 r13725"
   sodipodi:docname="5.svg">
  <metadata
     id="metadata944">
    <rdf:RDF>
      <cc:Work
         rdf:about="">
        <dc:format>image/svg+xml</dc:format>
        <dc:type
           rdf:resource="http://purl.org/dc/dcmitype/StillImage" />
      </cc:Work>
    </rdf:RDF>
  </metadata>
  <defs
     id="defs942" />
  <sodipodi:namedview
     pagecolor="#ffffff"
     bordercolor="#666666"
     borderopacity="1"
     objecttolerance="10"
     gridtolerance="10"
     guidetolerance="10"
     inkscape:pageopacity="0"
     inkscape:pageshadow="2"
     inkscape:window-width="1444"
     inkscape:window-height="712"
     id="namedview940"
     showgrid="false"
     inkscape:zoom="0.21648045"
     inkscape:cx="716"
     inkscape:cy="468"
     inkscape:window-x="0"
     inkscape:window-y="23"
     inkscape:window-maximized="0"
     inkscape:current-layer="svg2" />
  <path
     style="fill:#ab3b17;stroke:#000000;stroke-opacity:1;stroke-width:8;stroke-miterlimit:4;stroke-dasharray:none;stroke-linejoin:round"
     d="M924 74L925 75L924 74M583 231C582.421 228.576 582.555 224.58 580.973 222.603C575.971 216.354 565.35 223.82 560.83 226.077C558.756 227.113 556.374 227.221 554.286 228.228C551.146 229.741 548.89 232.548 545.999 234.431C538.017 239.629 531.421 244.102 525.64 252C517.788 262.73 512.579 272.661 507.872 285.004C506.711 288.049 504.774 290.737 504.225 294C503.35 299.195 503.544 305.77 504.129 311C504.501 314.33 506.358 317.586 505.088 320.941C503.812 324.312 501.062 324.362 498.169 325.566C494.243 327.2 487.499 330.589 485.12 334.133C482.398 338.187 478.843 343.231 477.684 348C474.768 360.002 480.275 371.397 480 383C485.387 385.693 488.365 393.158 489 399C484.734 397.841 480.766 395.155 477.553 392.081C474.879 389.522 473.292 386.6 469.049 387.248C462.585 388.234 461.481 398.816 460.831 404.004C459.516 414.502 455.92 425.811 460.839 435.9C463.762 441.896 470.162 445.632 473 452C465.315 452.329 460.431 453.46 456 446C451.846 448.088 446.766 448.811 443.04 451.569C439.61 454.108 437.606 457.658 435.161 461.039C432.747 464.378 429.339 467.155 427.703 471C423.783 480.213 425.665 491.333 425 501C427.296 504.353 425.458 507.181 425.104 511C424.575 516.714 424.488 523.296 425.129 529C426.456 540.81 434.597 552.691 442.548 561.25C446.894 565.928 454.836 569.791 460.375 572.769C462.945 574.151 467.364 573.941 467.364 577.964C467.364 585.661 452.542 578.166 449.028 582.603C444.855 587.873 450.979 599.906 451 606C455.583 608.309 455.972 613.152 460.055 616.009C462.866 617.977 466.992 620.56 470.3 621.526C473.063 622.333 476.204 621.522 478.776 623.024C481.762 624.767 483.681 628.964 485 632C481.094 632.011 476.937 633.018 473.09 632.652C471.495 632.5 469.038 631.033 467.554 632.157C464.064 634.799 470.204 641.929 471.889 643.942C476.77 649.775 486.358 652.68 489.397 660.17C490.646 663.25 489.733 666.922 489 670C486.639 668.535 484.727 667.544 482 667C482.657 675.255 485.16 687.242 495 688C496.54 693.207 503.68 701.311 509.845 700.613C512.805 700.278 515.558 697.53 518 696C521.13 705.939 525.54 716.524 534.428 722.52C536.694 724.049 543.475 728.248 545.816 725.377C551.111 718.886 536.146 712.104 534.728 706.985C534.289 705.398 534.071 698.813 537.495 700.917C539.073 701.886 539.493 704.406 540 706L542 703C543.43 707.26 545.781 712.662 550.259 714.523C554.571 716.315 562.533 714.255 564 720L568 720C568 722.364 568.475 724.65 566 726C564.759 726.677 562.167 725.222 561 726C556.352 729.099 564.446 729.889 560 731C567.163 734.005 579.658 728.126 584 736C615.764 736 647.336 734.654 679 734L677 735C682.05 737.434 688.611 734.412 694 734.06C706.775 733.227 720.205 733.54 733 734.019C736.704 734.157 740.273 735.036 744 734.995C746.979 734.963 750.049 733.965 753 734.255C761.737 735.111 769.993 736.59 779 735.94C782.092 735.717 784.937 734.493 788 734.139C792.297 733.642 796.728 734.511 801 733.806C805.52 733.059 809.287 731.088 814 731.005C834.258 730.645 853.777 734.777 874 733.981C878.238 733.815 881.883 731.964 886 731.278C890.214 730.576 894.741 731 899 731C906.059 731 912.993 731.951 920 732C929.988 732.069 939.956 731 950 731C954.15 731 965.369 733.018 966 728C972.579 728.21 978.134 731 985 731C982.98 725.728 980.791 719.549 980 714C983.805 714 982.533 712.727 985 711C985.837 710.414 988.177 710.823 989 710C991.117 707.883 995.382 705.427 997 703L997 701C999.075 698.58 1001.18 696.818 1003 695L1004 696C1004.02 687.325 1005 678.717 1005 670C1005 663.724 1005.46 658.569 998 658C997.535 656.018 997.296 655.594 996 654C1003.17 649.348 992.704 641.799 996.937 636.661C998.423 634.857 1000.68 636.527 1002.29 637.125C1005.21 638.213 1008.91 638.347 1011.99 637.772C1016.85 636.861 1018.26 632.75 1020.95 629.209C1024.23 624.893 1027.03 622.619 1028 617C1023.51 617.723 1021 621.11 1017 623C1016.19 617.201 1017.78 613.791 1023 611L1022 605C1028.02 603.534 1027.94 598.823 1032.34 595.478C1036.63 592.226 1042.86 591.629 1045.99 586.892C1048.42 583.217 1046.58 578.585 1049.36 575.189C1052.22 571.697 1057.22 570.664 1061 568.487C1071.89 562.216 1080.43 556.165 1084.51 543.715C1087.29 535.206 1087.49 526.8 1087.26 518C1087.12 512.644 1088.37 507.423 1087.83 502C1087.22 495.878 1084.51 489.01 1082.44 483.285C1080.48 477.866 1075.76 473.823 1073.16 468.83C1070.95 464.564 1072.13 458.647 1071.96 454C1071.9 452.209 1071.33 449.992 1071.89 448.247C1073.05 444.616 1077.13 447.068 1079.71 446.272C1082.77 445.328 1085.15 441.623 1086.63 439C1097.93 419.073 1092.4 381.082 1064 381C1062.8 371.456 1068.11 365.669 1070.53 356.714C1071.87 351.768 1071.66 344.03 1070.74 339.004C1069.99 334.945 1066.41 329.612 1062.49 327.946C1060.5 327.103 1058.21 327.933 1056.28 326.884C1054.04 325.673 1051.13 321.017 1049.97 318.741C1047.42 313.718 1049.47 306.463 1048.82 301C1047.79 292.457 1043.86 284.688 1039.51 277.425C1032.47 265.68 1019.77 258.436 1006.96 254.46C1002.82 253.174 996.889 254.266 993.29 252.088C990.134 250.178 988.829 246.451 986.584 243.714C982.505 238.74 977.245 235.424 971 233.9C967.154 232.961 962.022 232.257 958.129 233.317C956.057 233.881 954.852 235.983 952.832 236.447C951.065 236.853 948.688 235.457 947 235C946.839 230.045 944.739 227.946 942.374 223.83C935.993 212.724 927.266 200.295 914 197C911.597 199.888 909.74 200.72 906 201L908 193C900.891 191.621 895.561 189.708 888 190.019C884.543 190.162 881.371 192.27 878 192.148C875.587 192.061 873.365 190.677 871 190.263C866.872 189.54 862.179 189.859 858 190.018C852.397 190.232 847.661 194.64 842.015 193.756C838.13 193.148 836.577 189.984 833.675 187.815C830.396 185.363 824.952 183.51 821 182.495C812.271 180.251 803.525 185.999 795 185.267C788.738 184.729 783.563 180.194 777 180C775.519 175.544 765.516 167.479 760.754 166.661C758.018 166.191 755.857 169.848 753.293 168.798C750.73 167.748 751.693 163.998 752 162C746.893 159.626 738.319 156.099 737 164C734.346 162.507 732.727 159.179 729.787 158.318C718.307 154.956 703.17 161.753 693.015 166.469C689.385 168.155 684.088 170.258 681.762 173.734C678.962 177.916 691.225 180.798 686.538 183.933C684.206 185.492 680.379 183.39 678 182.843C672.65 181.614 666.367 181.465 661 182.68C653.733 184.324 646.58 188.43 641.129 193.463C638.312 196.063 636.495 200.466 632.826 202.018C629.902 203.256 626.921 201.614 624 201.209C618.46 200.442 611.226 200.326 606.004 202.483C598.994 205.379 594.065 212.465 590.904 219.089C588.454 224.225 588.433 228.087 583 231z"
     id="path540" />
  <path
     style="fill:#dbd0ac; stroke:none;"
     d="M656 223C658.672 223.496 661.275 223.923 664 223.985C665.648 224.023 667.355 224.078 668.995 223.891C674.244 223.294 676.505 218.697 671.852 215.152C664.891 209.848 656.252 215.243 656 223M749.434 233.028C742.116 238.08 755.25 245.618 760.681 241.972C767.914 237.118 754.878 229.27 749.434 233.028M862.019 236.742C856.49 238.938 856.382 244.502 860.765 247.891C864.029 250.416 870.952 251.074 874.721 249.258C877.868 247.741 878.461 243.3 876.254 240.75C873.07 237.072 866.632 234.911 862.019 236.742M558 287C558.04 288.635 557.942 290.379 558.434 291.966C562.992 306.679 588.085 275.567 569.001 279.38C567.345 279.711 565.643 280.297 564.224 281.228C561.747 282.852 560.552 285.474 558 287M971 354C970.707 356.317 970.186 358.662 970.129 361.002C970.051 364.18 972.954 375.688 977.972 369.396C982.521 363.692 977.348 354.501 971 354M520 411C517.704 411.07 515.611 411.091 513.578 412.318C511.973 413.287 510.533 414.668 509.329 416.094C506.419 419.542 505.049 430.221 512.84 428.249C516.4 427.348 518.537 422.16 519.387 419C520.089 416.389 519.992 413.678 520 411z"
     id="path542" />
  <path
     style="fill:#31231b; stroke:none;"
     d="M708 518C710.584 517.678 712.602 517.027 715 516L715 513C706.909 511.074 697.859 511.656 690.001 508.906C673.939 503.285 663.84 485.405 663 469L658 469L659 485C649.628 484.694 640.82 474.139 637.268 466C636.319 463.826 634.35 453.291 631.17 453.921C628.345 454.481 629.134 459.167 629.688 461C632.319 469.707 636.996 475.542 637 485C637.002 491.239 636.406 497.829 637.443 504C640.315 521.088 651.78 539.177 665.754 549.24C676.412 556.915 696.341 567.973 706.401 552.985C708.225 550.268 709.467 546.083 710.296 542.911C712.459 534.624 708.024 526.339 708 518z"
     id="path544" />
  <path
     style="fill:#ab3b17; stroke:none;"
     d="M640 494C641.822 489.658 640.348 485.577 644 482C638.43 480.749 640 490.5 640 494z"
     id="path546" />
  <path
     style="fill:#dbd0ac; stroke:none;"
     d="M645 482C636.723 484.747 642.179 502.692 643.665 509C647.522 525.367 658.156 538.532 671.911 547.981C678.9 552.783 687.214 556.947 695.985 554.682C710.325 550.978 707.263 525.528 699.084 517.589C696.319 514.905 691.475 514.859 688 513.583C683.205 511.823 678.681 508.495 675.04 504.971C671.561 501.605 668.926 496.467 664.812 493.894C657.917 489.582 650.237 488.822 645 482z"
     id="path548" />
  <path
     style="fill:#ab3b17; stroke:none;"
     d="M645 483L646 484L645 483M646 484C648.122 486.37 650.072 487.758 653 489C650.911 486.348 649.199 485.086 646 484z"
     id="path550" />
  <path
     style="fill:#31231b; stroke:none;"
     d="M547 512C548.969 516.172 551.405 518.29 556 519C557.134 533.373 563.616 549.252 575.05 558.54C581.861 564.073 594.045 565.057 599.03 556.575C603.498 548.973 604.389 536.465 602.544 528C601.645 523.876 597.158 515.295 599.157 511.303C600.52 508.58 604.504 508.488 607 507.531C612.959 505.246 619.93 501.755 621 495C617.461 495.999 615.258 498.519 611.985 500.082C606.09 502.897 600.458 503.999 594 504C596.14 497.788 601.07 492.579 602 486C595.834 487.316 596.333 492.369 593.08 496.91C590.154 500.996 585.302 504.952 580.985 507.49C574.528 511.287 568.633 514.381 561 513.957C556.036 513.681 551.969 510.968 547 512z"
     id="path552" />
  <path
     style="fill:#ab3b17; stroke:none;"
     d="M655.667 489.333C655.222 489.778 656.278 489.722 656.333 489.667C656.778 489.222 655.722 489.278 655.667 489.333M658 491C659.248 491.685 659.548 491.749 661 492C659.752 491.315 659.452 491.251 658 491M661 492C662.248 492.685 662.548 492.749 664 493C662.752 492.315 662.452 492.251 661 492M667 496L668 497L667 496M641 497L641 505C642.161 502.23 642.161 499.77 641 497M669 499L670 500L669 499M671 501L672 502L671 501M653 502C654.248 502.685 654.548 502.749 656 503C654.752 502.315 654.451 502.251 653 502M672 502L673 503L672 502z"
     id="path554" />
  <path
     style="fill:#31231b; stroke:none;"
     d="M652.318 503.786C649.137 505.145 649.923 510.306 650.29 513C651.155 519.341 659.067 535.984 667.772 532.242C671.104 530.81 670.876 526.938 670.054 524C668.43 518.199 664.352 511.2 660.215 506.823C658.294 504.79 655.285 502.518 652.318 503.786z"
     id="path556" />
  <path
     style="fill:#ab3b17; stroke:none;"
     d="M658 504L659 505L658 504M674 504L675 505L674 504M642 505L643 511C643.889 508.492 643.495 507.185 642 505M659 505L660 506L659 505M649 506L649 514C650.161 511.23 650.161 508.77 649 506M660.333 506.667C660.278 506.722 660.222 507.778 660.667 507.333C660.722 507.278 660.778 506.222 660.333 506.667M676 506L677 507L676 506M677 507C678.223 508.195 678.42 508.316 680 509C678.777 507.805 678.58 507.684 677 507M585 508C586.506 508.683 587.315 508.826 589 509C587.494 508.317 586.685 508.174 585 508M662.333 508.667C662.278 508.722 662.222 509.778 662.667 509.333C662.722 509.278 662.778 508.222 662.333 508.667z"
     id="path558" />
  <path
     style="fill:#dbd0ac; stroke:none;"
     d="M562 525C565.828 524.545 569.474 522.848 572.896 525.452C580.006 530.864 587.574 546.483 574 548C575.896 555.793 586.914 561.881 593.348 554.697C598.824 548.581 598.701 537.602 597.711 530C597.04 524.853 594.993 512.182 589.726 509.747C584.363 507.267 576.101 515.387 571 517.089C568.62 517.883 565.502 517.92 563.603 519.737C562.105 521.17 562.147 523.099 562 525z"
     id="path560" />
  <path
     style="fill:#ab3b17; stroke:none;"
     d="M680.667 509.333C680.222 509.778 681.278 509.722 681.333 509.667C681.778 509.222 680.722 509.278 680.667 509.333M583 510L584 511L583 510M663 510C663.936 511.949 664.392 512.55 666 514C665.064 512.051 664.608 511.45 663 510M682 510C683.223 511.195 683.42 511.316 685 512C683.777 510.805 683.58 510.684 682 510M577 513C579.37 513.589 580.707 512.955 583 512C580.63 511.411 579.293 512.045 577 513M685 512C686.789 513.422 687.706 513.697 690 514C688.307 512.938 686.96 512.48 685 512M644 513L644 516C644.696 514.446 644.696 514.554 644 513M574 516C575.58 515.317 575.777 515.195 577 514C575.42 514.684 575.223 514.805 574 516M593.333 514.667C593.278 514.722 593.222 515.778 593.667 515.333C593.722 515.278 593.778 514.222 593.333 514.667M650.333 514.667C650.278 514.722 650.222 515.778 650.667 515.333C650.722 515.278 650.778 514.222 650.333 514.667M691 514C692.248 514.685 692.548 514.749 694 515C692.752 514.315 692.452 514.251 691 514M666 515L667 519C667.393 517.076 667.146 516.641 666 515M694 515C695.248 515.685 695.548 515.749 697 516C695.752 515.315 695.452 515.251 694 515M566 517C568.523 517.99 570.358 517.617 573 517C570.607 516.259 568.507 516.698 566 517M645 516C645.628 518.403 646.562 519.958 648 522C648.436 519.218 647.06 517.827 645 516M699.333 516.667C699.278 516.722 699.222 517.778 699.667 517.333C699.722 517.278 699.778 516.222 699.333 516.667M561 524C562.255 522.075 563.3 520.548 565 519C561.546 518.223 561.227 521.06 561 524M700 518C700.684 519.58 700.805 519.777 702 521C701.316 519.42 701.195 519.223 700 518M595.333 519.667C595.278 519.722 595.222 520.778 595.667 520.333C595.722 520.278 595.778 519.222 595.333 519.667M653 521L654 522L653 521M596.333 522.667C596.278 522.722 596.222 523.778 596.667 523.333C596.722 523.278 596.778 522.222 596.333 522.667M654.333 522.667C654.278 522.722 654.222 523.778 654.667 523.333C654.722 523.278 654.778 522.222 654.333 522.667M567 523C568.506 523.683 569.315 523.826 571 524C569.494 523.317 568.685 523.174 567 523M571.667 524.333C571.222 524.778 572.278 524.722 572.333 524.667C572.778 524.222 571.722 524.278 571.667 524.333M670.333 524.667C670.278 524.722 670.222 525.778 670.667 525.333C670.722 525.278 670.778 524.222 670.333 524.667M703.333 524.667C703.278 524.722 703.222 525.778 703.667 525.333C703.722 525.278 703.778 524.222 703.333 524.667M562 525C563.248 525.685 563.548 525.749 565 526C563.752 525.315 563.452 525.251 562 525M573 525L574 526L573 525M597 525L597 529C597.71 527.24 597.71 526.76 597 525M574 526L575 527L574 526M704.333 526.667C704.278 526.722 704.222 527.778 704.667 527.333C704.722 527.278 704.778 526.222 704.333 526.667M657 528C657.545 529.635 657.365 529.455 659 530L659 528L657 528M598 529L598 545C599.812 540.681 599.812 533.319 598 529M653.333 529.667C653.278 529.722 653.222 530.778 653.667 530.333C653.722 530.278 653.778 529.222 653.333 529.667M659 530L660 531L659 530M705 530L705 534C705.71 532.24 705.71 531.76 705 530M660 531L661 532L660 531M654 532L655 533L654 532M661 532C663.308 533.759 665.092 533.917 668 534C665.749 532.911 663.465 532.481 661 532M579.333 533.667C579.278 533.722 579.222 534.778 579.667 534.333C579.722 534.278 579.778 533.222 579.333 533.667M656 534L657 535L656 534M580 535L581 539C581.393 537.076 581.146 536.64 580 535M657 535L658 536L657 535M706 535L706 540C706.83 537.97 706.83 537.03 706 535M658 536L659 537L658 536M661 539L662 540L661 539M662 540L663 541L662 540M663 541L664 542L663 541M664 542L665 543L664 542M665 543L666 544L665 543M705.333 543.667C705.278 543.722 705.222 544.778 705.667 544.333C705.722 544.278 705.778 543.222 705.333 543.667M666 544L667 545L666 544M667 545C668.717 546.84 669.566 547.349 672 548C670.337 546.497 669.104 545.801 667 545M579.667 546.333C579.222 546.778 580.278 546.722 580.333 546.667C580.778 546.222 579.722 546.278 579.667 546.333M596 547L595 553C596.654 550.823 596.994 549.575 596 547M703 547L701 551C702.86 549.734 703.369 549.223 703 547M674 549L675 550L674 549z"
     id="path562" />
  <path
     style="fill:#dbd0ac; stroke:none;"
     d="M964 566C973.862 565.679 976.134 556.382 971 549C963.405 552.104 964 558.865 964 566z"
     id="path564" />
  <path
     style="fill:#ab3b17; stroke:none;"
     d="M676 551C677.663 552.503 678.896 553.199 681 554C679.283 552.16 678.434 551.651 676 551M575 552L576 553L575 552M594.333 553.667C594.278 553.722 594.222 554.778 594.667 554.333C594.722 554.278 594.778 553.222 594.333 553.667M699 553L700 554L699 553M577 554L578 555L577 554M682.667 554.333C682.222 554.778 683.278 554.722 683.333 554.667C683.778 554.222 682.722 554.278 682.667 554.333M578.667 555.333C578.222 555.778 579.278 555.722 579.333 555.667C579.778 555.222 578.722 555.278 578.667 555.333M684 555C687.698 556.552 692.017 556 696 556C692.303 554.448 687.983 555 684 555M592 556L593 557L592 556M581 557C583.308 558.759 585.092 558.917 588 559C585.748 557.911 583.465 557.481 581 557M588 557C589.248 557.685 589.549 557.749 591 558C589.752 557.315 589.451 557.251 588 557z"
     id="path566" />
  <path
     style="fill:#31231b; stroke:none;"
     d="M815 640C816.225 639.96 817.791 640.107 818.985 639.682C827.866 636.525 817.137 626.666 815.863 621.999C814.392 616.615 816.175 610.722 812.686 606C810.687 603.295 807.904 600.034 804.83 598.549C801.039 596.718 796.623 596.536 793.13 593.972C788.052 590.246 785.696 583.436 780.911 579.228C776.513 575.361 772.106 576.939 767 575.491C760.505 573.649 756.076 568.395 749 568.04C742.303 567.704 738.097 570.56 731.911 571.737C726.995 572.672 722.471 571.218 718 574.148C712.697 577.624 710.568 583.697 705.696 587.258C700.232 591.251 692.21 588.701 686.214 593.188C680.698 597.317 683.235 603.457 680.992 608.996C678.532 615.07 672.095 617.01 668.703 622.185C666.524 625.509 667.267 629.271 666.941 633C666.419 638.974 661.31 641.288 658.514 646.039C656.361 649.698 657.395 654.074 655.871 657.961C654.841 660.589 650.871 666.574 655.434 668.338C659.272 669.822 663.236 664.696 664.968 661.999C667.194 658.535 667.472 654.325 670.483 651.299C674.41 647.352 679.948 647.677 684.471 645.157C687.939 643.224 689.223 638.847 692.185 636.318C696.766 632.405 702.575 635.504 707.572 633.142C712.419 630.851 714.044 624.69 719.04 622.746C722.811 621.279 727.103 623.045 731 622.945C734.843 622.846 738.22 620.777 742 620.702C747.055 620.602 751.837 622.539 757 621.867C763.625 621.004 767.698 615.451 775 617.434C780.455 618.915 783.998 624.252 789 626.697C798.184 631.186 812.628 625.228 815 640z"
     id="path568" />
  <path
     style="fill:#ab3b17; stroke:none;"
     d="M741 574C744.385 575.464 748.39 576.045 752 577C748.619 574.311 745.227 574.038 741 574z"
     id="path570" />
  <path
     style="fill:#dbd0ac; stroke:none;"
     d="M741 575.61C733.523 577.462 730.2 580.242 730.927 587.999C731.114 589.996 731.015 592.575 732.742 593.972C734.589 595.466 737.801 594.995 740 595C745.662 595.012 753.339 596.348 758.772 594.682C762.907 593.414 763.337 583.725 760.972 580.738C759.627 579.039 756.922 578.762 754.999 578.111C750.269 576.509 746.113 574.343 741 575.61z"
     id="path572" />
  <path
     style="fill:#dbd0ac; stroke:none;"
     d="M507.058 583.172C499.274 586.232 503.522 604.515 512.772 600.396C519.813 597.261 514.969 580.062 507.058 583.172z"
     id="path576" />
  <path
     style="fill:#ab3b17; stroke:none;"
     d="M762 582C762 586.114 761.956 589.983 761 594C764.045 591.339 763.478 585.521 762 582M730 584L730 590C730.951 587.715 730.951 586.285 730 584M1246 589L1249 598C1245.3 600.649 1246.93 603.633 1249 607L1255 606C1254.93 599.511 1253 590.932 1246 589M732 595C739.169 598.008 750.239 596 758 596C750.831 592.992 739.761 595 732 595z"
     id="path578" />
</svg>
