<?xml version="1.0" encoding="UTF-8" standalone="no"?>
<svg
   xmlns:dc="http://purl.org/dc/elements/1.1/"
   xmlns:cc="http://creativecommons.org/ns#"
   xmlns:rdf="http://www.w3.org/1999/02/22-rdf-syntax-ns#"
   xmlns:svg="http://www.w3.org/2000/svg"
   xmlns="http://www.w3.org/2000/svg"
   xmlns:sodipodi="http://sodipodi.sourceforge.net/DTD/sodipodi-0.dtd"
   xmlns:inkscape="http://www.inkscape.org/namespaces/inkscape"
   width="1432"
   height="936"
   id="svg2"
   version="1.1"
   inkscape:version="0.91 r13725"
   sodipodi:docname="6.svg">
  <metadata
     id="metadata1374">
    <rdf:RDF>
      <cc:Work
         rdf:about="">
        <dc:format>image/svg+xml</dc:format>
        <dc:type
           rdf:resource="http://purl.org/dc/dcmitype/StillImage" />
      </cc:Work>
    </rdf:RDF>
  </metadata>
  <defs
     id="defs1372" />
  <sodipodi:namedview
     pagecolor="#ffffff"
     bordercolor="#666666"
     borderopacity="1"
     objecttolerance="10"
     gridtolerance="10"
     guidetolerance="10"
     inkscape:pageopacity="0"
     inkscape:pageshadow="2"
     inkscape:window-width="1420"
     inkscape:window-height="595"
     id="namedview1370"
     showgrid="false"
     inkscape:zoom="0.21648045"
     inkscape:cx="716"
     inkscape:cy="468"
     inkscape:window-x="0"
     inkscape:window-y="23"
     inkscape:window-maximized="0"
     inkscape:current-layer="svg2" />
  <path
     style="fill:#ab3b17;stroke:#000000;stroke-opacity:1;stroke-width:8;stroke-miterlimit:4;stroke-dasharray:none;stroke-linejoin:round"
     d="M924 74L925 75L924 74M497 288C488.951 288.607 486.121 295.894 484.63 303.039C483.735 307.326 484.476 311.716 483.66 315.985C482.987 319.513 481.157 322.332 481.019 326.015C480.79 332.066 482.123 339.089 480.431 344.961C478.66 351.109 473.991 350.886 469.129 353.143C466.333 354.441 463.377 357.145 461.28 359.375C449.841 371.538 446.962 385.871 449 402L452 402C452.41 408.179 457.175 412.991 457.527 419C457.808 423.792 453.413 427.467 452.394 432C451.034 438.047 453.62 443.148 454 449C442.948 442.631 449.038 427.525 451 418C440.692 418.747 431.036 428.374 426.214 437C417.285 452.974 417.191 476.108 419.576 494C420.423 500.354 421.266 507.159 424.554 512.826C426.532 516.235 429.613 518.855 431.91 522.039C434.51 525.646 436.056 529.085 439.619 531.919C442.742 534.403 449.273 536.468 449.94 540.957C450.803 546.764 439.911 544.141 439.188 550.059C438.59 554.947 441.172 559.404 441.651 564.089C442.154 569.005 440.488 573.972 441.189 578.985C441.62 582.068 443.541 584.218 444.451 587.089C445.603 590.723 445.52 595.201 446 599C452.314 602.146 455.133 608.691 460.459 612.867C464.825 616.289 470.382 615.566 474.981 618.024C478.703 620.014 480.417 624.242 481.826 628C484.796 635.922 479.634 643.177 480.095 651.004C481.206 669.861 496.167 686.998 515 687C516.435 682.211 520.525 680.604 524.545 684.268C532.02 691.081 538.933 705.426 551 702C551.449 703.756 551.655 704.393 551 706C551.396 706.382 552.556 707.269 552.855 707.865C556.364 714.869 544.712 709.916 543.881 713.323C543.518 714.813 544.539 716.349 545.407 717.448C546.804 719.216 548.852 720.318 550.056 722.263C551.678 724.886 551.831 728.051 554.394 730.106C557.403 732.519 561.296 731.502 564.7 732.764C577.103 737.364 591.491 738.908 604.961 737.946C613.449 737.34 621.208 735.333 630 736.17C643.508 737.455 656.547 736.002 670 736.002C692.358 736.002 714.563 736.564 737 736.015C755.225 735.568 773.778 737.539 792 737.985C799.425 738.167 806.632 737.195 814 737.015C832.975 736.55 852.018 737 871 737C897.927 737 924.994 735.99 952 736C959.135 736.003 974.979 740.85 978.397 731.981C981.767 723.232 974.967 718.961 967 720.149C959.307 721.297 955.581 728.751 947 729C947.252 721.239 951.903 721.837 956.161 716.772C960.369 711.768 961.76 706.08 969 705L969 708C975.903 707.379 984.63 703.005 988.33 696.892C992.073 690.709 988.953 684.127 997 682C998.206 672.459 1000.38 662.541 997.956 653.004C996.576 647.567 989.524 641.909 993.604 636.184C999.236 628.283 1010.89 628.911 1019 626.031C1033.49 620.887 1044.96 603.071 1045 588C1039.18 589.799 1036.35 595.515 1030 596C1030.37 589.157 1034.75 587.98 1037.7 582.661C1041.27 576.211 1042.85 568.297 1043 561C1046.75 560.23 1050.13 559.112 1054 559C1056.77 553.941 1062.6 551.783 1065.94 546.985C1072.44 537.658 1076.01 524.936 1079.4 514.17C1081.43 507.728 1083.91 501.931 1082.74 495C1081.58 488.142 1077.73 482.18 1074.88 476C1073.48 472.97 1072.67 469.85 1070.75 467.054C1068.36 463.571 1061.98 460.901 1062.47 456.039C1062.89 451.858 1068.5 449.765 1071.18 447.156C1076.05 442.43 1080.83 434.139 1083.32 427.83C1089.22 412.855 1089.87 400.378 1085.23 385C1083.64 379.73 1079.8 375.385 1079 370C1074.31 367.172 1072.44 361.182 1067.91 357.803C1065.44 355.963 1060.81 355.158 1059.89 351.856C1058.94 348.398 1061.32 344.391 1061.79 341C1063.29 330.246 1061.34 313.474 1049 310C1047.54 313.397 1045.83 316.892 1043.68 319.922C1043.02 320.845 1041.23 323.411 1039.82 322.079C1038.77 321.086 1039.53 319.111 1039.86 317.995C1041.01 314.143 1041.93 311.068 1042 307C1042.27 292.408 1042.56 278.926 1036.83 265C1028.6 244.999 1009.52 233.012 989 227.732C983.757 226.382 976.811 228.271 972.144 226.254C968.741 224.783 968.729 221.054 967.58 218.039C966.31 214.706 963.708 211.651 960.907 209.481C952.675 203.104 945.357 204.566 936.004 204.093C933.31 203.956 931.297 202.063 928.714 201.704C925.102 201.203 920.772 202.966 917 203C917 200.22 917.427 196.941 916.436 194.289C914.231 188.388 906.325 184.445 901.428 181.08C883.674 168.881 861.73 169.128 841 172C832.686 173.152 817.627 175.909 813.218 184.209C811.719 187.032 812.871 190.952 813 194L808 194C807.495 187.659 800.778 185.253 795.83 182.131C782.138 173.493 764.953 169.968 749 175.363C743.363 177.27 737.863 185.949 731.975 185.383C726.809 184.888 724.874 179.508 720.924 176.97C714.559 172.88 707.397 172.02 700 172C698.191 166.549 689.817 167.211 685 168.544C679.762 169.994 675.214 169.439 670 170.48C662.971 171.883 654.464 175.617 649 180.26C643.958 184.544 639.295 190.726 636.224 196.615C634.851 199.248 635.391 203.184 632.682 204.971C627.553 208.356 618.139 203.815 612 206.035C607.424 207.691 602.776 210.038 599.993 214.184C598.235 216.803 598.417 221.152 595.682 222.972C593.229 224.605 589.757 223.782 587 224.214C583.309 224.792 580.057 226.857 577.089 229.029C573.961 231.319 570.017 234.277 568.602 238.015C567.296 241.465 568.473 245.709 564.772 247.972C559.017 251.49 548.524 248.272 542 249.21C528.863 251.099 518.184 258.976 508.718 267.804C502.092 273.985 497.032 278.598 497 288z"
     id="path710" />
  <path
     style="fill:#e2d6ae; stroke:none;"
     d="M826 228C828.421 228.295 830.615 229.115 833.001 229.525C833.915 229.683 835.021 229.891 835.941 229.628C845.747 226.821 830.339 214.919 826.603 223.124C825.921 224.624 826.052 226.406 826 228M709.094 224.858C705.158 226.597 702.194 232.877 706.514 235.972C709.193 237.892 715.992 237.505 718.891 236.258C722.814 234.57 723.88 229.603 720.681 226.653C717.818 224.011 712.63 223.296 709.094 224.858M619 247C616.676 247 614.319 246.898 611.998 247.044C608.877 247.241 600.707 250.988 605.608 254.972C611.901 260.088 618.292 252.625 619 247z"
     id="path712" />
  <path
     style="fill:#ab3b17; stroke:none;"
     d="M479 277L478 281L482 281L481 277L479 277z"
     id="path714" />
  <path
     style="fill:#e2d6ae; stroke:none;"
     d="M546.996 307.722C543.349 308.812 538.008 312.493 536.619 316.17C534.66 321.356 539.507 323.783 543.911 322.569C547.462 321.591 552.303 317.298 553.392 313.711C554.685 309.451 550.937 306.545 546.996 307.722M960 336C960.301 334.352 960.721 332.661 960.737 330.976C960.853 318.77 946.117 327.941 955.66 334.682C957.047 335.662 958.38 335.764 960 336M502.688 437.046C497.697 440.405 495.856 457.204 504.777 450.847C507.656 448.796 510.388 443.811 509.628 440.189C509.025 437.314 505.283 435.3 502.688 437.046z"
     id="path716" />
  <path
     style="fill:#31241c; stroke:none;"
     d="M707 518C710.494 517.446 712.596 516.605 715 514C707.234 511.683 698.695 511.56 691 509.25C684.632 507.339 678.915 502.807 674.343 498.076C670.516 494.118 666.204 487.258 664.595 481.999C663.156 477.298 663.205 470.726 658 469C658.01 472.464 660.476 480.736 658.224 483.392C655.997 486.018 652.677 483.75 650.714 482.137C645.381 477.755 640.064 472.407 637.268 466C636.319 463.826 634.35 453.291 631.17 453.921C625.656 455.014 631.812 465.615 632.643 468C633.76 471.206 636.608 473.978 637.317 477.174C638.105 480.722 637.001 485.332 637 489C636.996 498.401 637.456 506.163 640.959 515C648.665 534.439 661.984 549.389 681 558.467C696.487 565.86 710.499 553.858 710.907 538C711.076 531.396 708.219 524.467 707 518z"
     id="path718" />
  <path
     style="fill:#ab3b17; stroke:none;"
     d="M640 494C641.822 489.658 640.348 485.577 644 482C638.43 480.749 640 490.5 640 494z"
     id="path720" />
  <path
     style="fill:#28bd68; stroke:none;"
     d="M642 482C643.248 482.685 643.548 482.749 645 483C643.752 482.315 643.452 482.251 642 482z"
     id="path722" />
  <path
     style="fill:#e2d6ae; stroke:none;"
     d="M641 483C641 508.545 648.456 532.673 671 547.301C678.642 552.259 690.938 559.423 699.624 552.297C708.935 544.659 706.384 528.002 700.319 519.148C697.122 514.481 686.979 513.571 682 510.405C675.47 506.253 672.01 500.083 666.446 495.13C662.567 491.677 656.563 490.513 651.996 488.157C648.125 486.159 645.416 483.645 641 483z"
     id="path724" />
  <path
     style="fill:#ab3b17; stroke:none;"
     d="M645 483L646 484L645 483M646 484C648.122 486.37 650.072 487.758 653 489C650.911 486.348 649.199 485.086 646 484z"
     id="path726" />
  <path
     style="fill:#31241c; stroke:none;"
     d="M547 512C549.021 516.196 553.49 517.285 555.566 521.143C558.187 526.013 558.195 532.696 560.262 537.911C561.462 540.937 563.897 543.251 565.566 546.015C570.567 554.292 579.793 568.522 591.576 561.427C593.533 560.249 595.323 558.562 596.885 556.911C598.637 555.058 600.261 552.947 601.246 550.576C604.243 543.362 603.583 533.38 601.731 526C600.856 522.516 597.5 514.612 599.157 511.303C600.52 508.58 604.504 508.488 607 507.531C612.959 505.246 619.93 501.755 621 495C617.461 495.999 615.258 498.519 611.985 500.082C606.09 502.897 600.458 503.999 594 504C596.14 497.788 601.07 492.579 602 486C595.538 487.379 596.034 493.318 592.387 497.945C589.043 502.188 582.53 506.363 577.826 509.083C571.914 512.502 566.94 514.552 560 513.896C555.335 513.455 551.725 511.018 547 512z"
     id="path728" />
  <path
     style="fill:#ab3b17; stroke:none;"
     d="M655.667 489.333C655.222 489.778 656.278 489.722 656.333 489.667C656.778 489.222 655.722 489.278 655.667 489.333M658 491C659.248 491.685 659.548 491.749 661 492C659.752 491.315 659.452 491.251 658 491M661 492C662.248 492.685 662.548 492.749 664 493C662.752 492.315 662.452 492.251 661 492M667 496L668 497L667 496M641 497L641 505C642.161 502.23 642.161 499.77 641 497M669 499L670 500L669 499M671 501L672 502L671 501M653 502C654.248 502.685 654.548 502.749 656 503C654.752 502.315 654.451 502.251 653 502M672 502L673 503L672 502z"
     id="path730" />
  <path
     style="fill:#31241c; stroke:none;"
     d="M652.318 503.786C649.137 505.145 649.923 510.306 650.29 513C651.155 519.341 659.067 535.984 667.772 532.242C671.104 530.81 670.876 526.938 670.054 524C668.43 518.199 664.352 511.2 660.215 506.823C658.294 504.79 655.285 502.518 652.318 503.786z"
     id="path732" />
  <path
     style="fill:#28bd68; stroke:none;"
     d="M656.667 503.333C656.222 503.778 657.278 503.722 657.333 503.667C657.778 503.222 656.722 503.278 656.667 503.333M649.333 504.667C649.278 504.722 649.222 505.778 649.667 505.333C649.722 505.278 649.778 504.222 649.333 504.667z"
     id="path734" />
  <path
     style="fill:#ab3b17; stroke:none;"
     d="M658 504L659 505L658 504M674 504L675 505L674 504M642 505L643 511C643.889 508.492 643.495 507.185 642 505M659 505L660 506L659 505M649 506L649 514C650.161 511.23 650.161 508.77 649 506M660.333 506.667C660.278 506.722 660.222 507.778 660.667 507.333C660.722 507.278 660.778 506.222 660.333 506.667M676 506L677 507L676 506M677 507C678.223 508.195 678.42 508.316 680 509C678.777 507.805 678.58 507.684 677 507M585 508C587.237 509.333 589.518 510.198 592 511C589.766 508.704 588.198 508.23 585 508M662.333 508.667C662.278 508.722 662.222 509.778 662.667 509.333C662.722 509.278 662.778 508.222 662.333 508.667z"
     id="path736" />
  <path
     style="fill:#e2d6ae; stroke:none;"
     d="M562 525C565.274 524.61 568.869 522.999 571.957 524.796C580.301 529.655 588.241 546.704 574 548C575.896 555.793 586.914 561.881 593.348 554.697C599 548.385 598.79 536.807 597.561 529C596.689 523.46 594.773 512.321 588.907 509.877C585.037 508.265 582.094 511.803 578.985 513.525C572.728 516.992 562.643 516.68 562 525z"
     id="path738" />
  <path
     style="fill:#ab3b17; stroke:none;"
     d="M680.667 509.333C680.222 509.778 681.278 509.722 681.333 509.667C681.778 509.222 680.722 509.278 680.667 509.333M583 510L584 511L583 510M663 510C663.936 511.949 664.392 512.55 666 514C665.064 512.051 664.608 511.45 663 510M682 510C683.223 511.195 683.42 511.316 685 512C683.777 510.805 683.58 510.684 682 510z"
     id="path740" />
  <path
     style="fill:#e2d6ae; stroke:none;"
     d="M975 531C981.764 530.467 989.667 519.196 986.393 512.319C983.556 506.36 978.5 514.559 977.224 517.001C976.375 518.624 975.404 520.256 974.819 522C973.797 525.043 974.435 527.943 975 531z"
     id="path742" />
  <path
     style="fill:#ab3b17; stroke:none;"
     d="M577 513C579.462 513.697 580.665 513.11 583 512C580.726 511.591 579.219 512.212 577 513M685 512C686.789 513.422 687.706 513.697 690 514C688.307 512.938 686.96 512.48 685 512M644 513L644 516C644.696 514.446 644.696 514.554 644 513M574 516C575.58 515.317 575.777 515.195 577 514C575.42 514.684 575.223 514.805 574 516M593.333 514.667C593.278 514.722 593.222 515.778 593.667 515.333C593.722 515.278 593.778 514.222 593.333 514.667M650.333 514.667C650.278 514.722 650.222 515.778 650.667 515.333C650.722 515.278 650.778 514.222 650.333 514.667M691 514C692.734 516.003 694.355 515.923 697 516C694.987 514.775 693.341 514.355 691 514M666 515L667 519C667.393 517.076 667.146 516.641 666 515M566 517C568.523 517.99 570.358 517.617 573 517C570.607 516.259 568.507 516.698 566 517M645.333 516.667C645.278 516.722 645.222 517.778 645.667 517.333C645.722 517.278 645.778 516.222 645.333 516.667z"
     id="path744" />
  <path
     style="fill:#28bd68; stroke:none;"
     d="M650.333 516.667C650.278 516.722 650.222 517.778 650.667 517.333C650.722 517.278 650.778 516.222 650.333 516.667z"
     id="path746" />
  <path
     style="fill:#ab3b17; stroke:none;"
     d="M699.333 516.667C699.278 516.722 699.222 517.778 699.667 517.333C699.722 517.278 699.778 516.222 699.333 516.667M561 524C562.255 522.075 563.3 520.548 565 519C561.546 518.223 561.227 521.06 561 524M646 518L648 522C648.369 519.777 647.86 519.266 646 518z"
     id="path748" />
  <path
     style="fill:#28bd68; stroke:none;"
     d="M668.333 518.667C668.278 518.722 668.222 519.778 668.667 519.333C668.722 519.278 668.778 518.222 668.333 518.667M700.333 518.667C700.277 518.722 700.222 519.778 700.667 519.333C700.722 519.278 700.778 518.222 700.333 518.667z"
     id="path750" />
  <path
     style="fill:#ab3b17; stroke:none;"
     d="M595.333 519.667C595.278 519.722 595.222 520.778 595.667 520.333C595.722 520.278 595.778 519.222 595.333 519.667M701.333 519.667C701.278 519.722 701.222 520.778 701.667 520.333C701.722 520.278 701.778 519.222 701.333 519.667M653 521L654 522L653 521M596.333 522.667C596.278 522.722 596.222 523.778 596.667 523.333C596.722 523.278 596.778 522.222 596.333 522.667M654.333 522.667C654.278 522.722 654.222 523.778 654.667 523.333C654.722 523.278 654.778 522.222 654.333 522.667M567 523C568.506 523.683 569.315 523.826 571 524C569.494 523.317 568.685 523.174 567 523M571.667 524.333C571.222 524.778 572.278 524.722 572.333 524.667C572.778 524.222 571.722 524.278 571.667 524.333M670.333 524.667C670.278 524.722 670.222 525.778 670.667 525.333C670.722 525.278 670.778 524.222 670.333 524.667M703.333 524.667C703.278 524.722 703.222 525.778 703.667 525.333C703.722 525.278 703.778 524.222 703.333 524.667M562 525C563.248 525.685 563.548 525.749 565 526C563.752 525.315 563.452 525.251 562 525M573 525L574 526L573 525M597 525L597 529C597.71 527.24 597.71 526.76 597 525M574 526L575 527L574 526z"
     id="path752" />
  <path
     style="fill:#28bd68; stroke:none;"
     d="M656.333 526.667C656.278 526.722 656.222 527.778 656.667 527.333C656.722 527.278 656.778 526.222 656.333 526.667z"
     id="path754" />
  <path
     style="fill:#ab3b17; stroke:none;"
     d="M704.333 526.667C704.278 526.722 704.222 527.778 704.667 527.333C704.722 527.278 704.778 526.222 704.333 526.667M657 528C657.545 529.635 657.365 529.455 659 530L659 528L657 528z"
     id="path756" />
  <path
     style="fill:#28bd68; stroke:none;"
     d="M704 528L704 531C704.696 529.446 704.696 529.554 704 528z"
     id="path758" />
  <path
     style="fill:#ab3b17; stroke:none;"
     d="M598 529L598 545C599.812 540.681 599.812 533.319 598 529M653.333 529.667C653.278 529.722 653.222 530.778 653.667 530.333C653.722 530.278 653.778 529.222 653.333 529.667M659 530L660 531L659 530M705.333 530.667C705.278 530.722 705.222 531.778 705.667 531.333C705.722 531.278 705.778 530.222 705.333 530.667z"
     id="path760" />
  <path
     style="fill:#28bd68; stroke:none;"
     d="M654 531L655 532L654 531z"
     id="path762" />
  <path
     style="fill:#ab3b17; stroke:none;"
     d="M660 531L661 532L660 531M654 532L655 533L654 532M661 532C663.308 533.759 665.092 533.917 668 534C665.749 532.911 663.465 532.481 661 532z"
     id="path764" />
  <path
     style="fill:#28bd68; stroke:none;"
     d="M705.333 532.667C705.278 532.722 705.222 533.778 705.667 533.333C705.722 533.278 705.778 532.222 705.333 532.667z"
     id="path766" />
  <path
     style="fill:#ab3b17; stroke:none;"
     d="M579.333 533.667C579.278 533.722 579.222 534.778 579.667 534.333C579.722 534.278 579.778 533.222 579.333 533.667M656 534L657 535L656 534M580 535L581 539C581.393 537.076 581.146 536.64 580 535M657 535L658 536L657 535M706 535L706 540C706.83 537.97 706.83 537.03 706 535M658 536L659 537L658 536M661 539L662 540L661 539M662 540L663 541L662 540z"
     id="path768" />
  <path
     style="fill:#28bd68; stroke:none;"
     d="M705 540L705 543C705.696 541.446 705.696 541.554 705 540M582 541L582 545C582.71 543.24 582.71 542.76 582 541z"
     id="path770" />
  <path
     style="fill:#ab3b17; stroke:none;"
     d="M663 541L664 542L663 541M664 542L665 543L664 542M665 543L666 544L665 543M705.333 543.667C705.278 543.722 705.222 544.778 705.667 544.333C705.722 544.278 705.778 543.222 705.333 543.667M666 544L667 545L666 544z"
     id="path772" />
  <path
     style="fill:#28bd68; stroke:none;"
     d="M581.333 545.667C581.278 545.722 581.222 546.778 581.667 546.333C581.722 546.278 581.778 545.222 581.333 545.667z"
     id="path774" />
  <path
     style="fill:#ab3b17; stroke:none;"
     d="M667 545C668.717 546.84 669.566 547.349 672 548C670.337 546.497 669.104 545.801 667 545M579.667 546.333C579.222 546.778 580.278 546.722 580.333 546.667C580.778 546.222 579.722 546.278 579.667 546.333M596 547L595 553C596.654 550.823 596.994 549.575 596 547M703 547L701 551C702.86 549.734 703.369 549.223 703 547M674 549L675 550L674 549M675 550C676.896 552.02 678.415 552.995 681 554C679.104 551.819 677.741 550.931 675 550M574 551L575 552L574 551M575 552L576 553L575 552M594.333 553.667C594.278 553.722 594.222 554.778 594.667 554.333C594.722 554.278 594.778 553.222 594.333 553.667z"
     id="path776" />
  <path
     style="fill:#28bd68; stroke:none;"
     d="M681.667 553.333C681.222 553.778 682.278 553.722 682.333 553.667C682.778 553.222 681.722 553.278 681.667 553.333M698 553L699 554L698 553z"
     id="path778" />
  <path
     style="fill:#ab3b17; stroke:none;"
     d="M699 553L700 554L699 553M577 554L578 555L577 554M682.667 554.333C682.222 554.778 683.278 554.722 683.333 554.667C683.778 554.222 682.722 554.278 682.667 554.333z"
     id="path780" />
  <path
     style="fill:#28bd68; stroke:none;"
     d="M695 554C696.248 554.685 696.549 554.749 698 555C696.752 554.315 696.452 554.251 695 554z"
     id="path782" />
  <path
     style="fill:#31241c; stroke:none;"
     d="M653 693C654.362 690.175 655.617 686.764 657.58 684.31C659.746 681.604 661.951 680.414 663 677C671.494 676.357 672.229 667.868 679.09 664.434C682.853 662.55 687.207 662.789 690.999 660.745C695.232 658.464 698.371 654.087 703.015 652.724C707.252 651.48 711.858 652.74 715.999 651.157C720.303 649.511 722.319 645.299 726.209 643.353C730.869 641.023 739.778 643 745 643C744.35 641.7 744.853 642 743 642C749.318 640.002 757.559 638.756 763.999 640.92C767.304 642.03 769.836 644.826 773.17 645.687C777.288 646.75 781.781 645.496 785.961 646.147C789.804 646.747 792.39 649.968 796.004 651.235C800.786 652.913 806.436 652.609 810.985 655.009C813.664 656.422 815.326 658.974 817.745 660.701C821.628 663.474 826.198 665.372 830.17 668.174C832.122 669.551 835.855 672.656 838.382 670.914C840.867 669.202 839.159 662.524 838.91 660C838.321 654.039 834.433 650.875 831.564 646C830.152 643.601 830.265 640.924 829.182 638.439C827.452 634.469 823.619 631.542 820.015 629.394C810.749 623.874 810.687 612.698 803.231 605.228C799.338 601.326 793.442 601.593 789.004 598.451C783.921 594.852 781.391 588.711 776.545 585.008C773.791 582.904 770.123 582.881 767 581.611C760.656 579.032 755.182 575.321 748 576.129C743.779 576.603 740.156 579.033 736 579.74C732.463 580.341 728.571 579.368 725.174 580.728C720.336 582.664 717.731 588.119 713.78 591.236C709.764 594.405 703.621 595.882 700.603 600.108C698.701 602.77 699.014 606.246 696.682 608.701C693.491 612.061 688.532 613.821 685.044 617.039C682.459 619.425 681.308 622.6 679.193 625.335C675.235 630.454 670.047 635.2 666.724 640.718C663.259 646.471 664.627 653.005 660.235 658.576C657.422 662.144 656.913 665.913 655.215 670C653.361 674.459 650.601 678.171 649.63 683C648.761 687.316 648.342 691.454 653 693z"
     id="path786" />
  <path
     style="fill:#ab3b17; stroke:none;"
     d="M748 582L758 586C755.096 582.858 752.21 582.196 748 582M745.667 583.333C745.222 583.778 746.278 583.722 746.333 583.667C746.778 583.222 745.722 583.278 745.667 583.333z"
     id="path788" />
  <path
     style="fill:#e2d6ae; stroke:none;"
     d="M735 588C734.703 590.368 733.722 593.461 734.643 595.772C736.655 600.821 746.754 599 751 599C754.145 599 760.747 600.218 762.972 597.397C769.482 589.145 753.004 582.23 747 583.533C742.825 584.44 739.102 586.819 735 588z"
     id="path790" />
  <path
     style="fill:#ab3b17; stroke:none;"
     d="M740.667 585.333C740.222 585.778 741.278 585.722 741.333 585.667C741.778 585.222 740.722 585.278 740.667 585.333M759 586L760 587L759 586M736.667 587.333C736.222 587.778 737.278 587.722 737.333 587.667C737.778 587.222 736.722 587.278 736.667 587.333M762 588C762.545 589.635 762.365 589.455 764 590L764 588L762 588M734 589L734 592C734.696 590.446 734.696 590.554 734 589M735.667 598.333C735.222 598.778 736.278 598.722 736.333 598.667C736.778 598.222 735.722 598.278 735.667 598.333M739 599C742.163 600.327 745.586 600 749 600C745.837 598.673 742.414 599 739 599z"
     id="path792" />
  <path
     style="fill:#28bd68; stroke:none;"
     d="M749 599C753.217 600.769 758.459 600 763 600C758.783 598.231 753.541 599 749 599z"
     id="path794" />
  <path
     style="fill:#e2d6ae; stroke:none;"
     d="M513.105 611.917C506.26 614.69 511.624 628.634 518.683 626.267C524.303 624.382 519.443 609.349 513.105 611.917z"
     id="path796" />
  <path
     style="fill:#e2d6ae; stroke:none;"
     d="M947 623C943.889 623 940.001 622.44 937.184 624.027C933.387 626.167 926.005 637.111 931.589 640.914C934.005 642.559 936.447 639.613 937.869 638.031C941.823 633.633 946.194 629.008 947 623z"
     id="path800" />
  <path
     style="fill:#28bd68; stroke:none;"
     d="M376 660C376.577 663.474 377.526 664.423 381 665C380.423 661.526 379.474 660.577 376 660M1365 681L1369 680L1369 675C1365.05 675.659 1364.11 677.109 1365 681z"
     id="path804" />
  <path
     style="fill:#31241c; stroke:none;"
     d="M63 681C72.2288 680.281 64.3785 673.063 63 681z"
     id="path806" />
  <path
     style="fill:#28bd68; stroke:none;"
     d="M432 691C432.898 696.379 437.102 696.379 438 691L432 691M1354 692L1354 695L1357 695L1357 692L1354 692z"
     id="path814" />
  <path
     style="fill:#e2d6ae; stroke:none;"
     d="M757 704C759.656 704.829 762.2 705.756 765 705.946C766.968 706.08 769.034 706.078 770.999 705.906C776.176 705.451 781.049 700.171 775.682 695.742C768.413 689.744 757.469 695.509 757 704z"
     id="path816" />
  <path
     style="fill:#31241c; stroke:none;"
     d="M401 696L401 699L404 699L404 696L401 696z"
     id="path818" />
  <path
     style="fill:#28bd68; stroke:none;"
     d="M449 704C451.853 703.013 452.373 701.936 453 699C450.159 700.127 449.508 700.987 449 704z"
     id="path820" />
  <path
     style="fill:#e2d6ae; stroke:none;"
     d="M649 705C646.672 704.561 644.344 704.1 641.998 703.758C638.483 703.247 629.234 705.029 633.647 710.57C636.133 713.692 644.542 714.225 647.397 711.398C649.089 709.723 648.929 707.178 649 705z"
     id="path822" />
</svg>
