<?xml version="1.0" encoding="UTF-8" standalone="no"?>
<svg
   xmlns:dc="http://purl.org/dc/elements/1.1/"
   xmlns:cc="http://creativecommons.org/ns#"
   xmlns:rdf="http://www.w3.org/1999/02/22-rdf-syntax-ns#"
   xmlns:svg="http://www.w3.org/2000/svg"
   xmlns="http://www.w3.org/2000/svg"
   xmlns:sodipodi="http://sodipodi.sourceforge.net/DTD/sodipodi-0.dtd"
   xmlns:inkscape="http://www.inkscape.org/namespaces/inkscape"
   width="1432"
   height="936"
   id="svg2"
   version="1.1"
   inkscape:version="0.91 r13725"
   sodipodi:docname="7.svg">
  <metadata
     id="metadata1442">
    <rdf:RDF>
      <cc:Work
         rdf:about="">
        <dc:format>image/svg+xml</dc:format>
        <dc:type
           rdf:resource="http://purl.org/dc/dcmitype/StillImage" />
      </cc:Work>
    </rdf:RDF>
  </metadata>
  <defs
     id="defs1440" />
  <sodipodi:namedview
     pagecolor="#ffffff"
     bordercolor="#666666"
     borderopacity="1"
     objecttolerance="10"
     gridtolerance="10"
     guidetolerance="10"
     inkscape:pageopacity="0"
     inkscape:pageshadow="2"
     inkscape:window-width="1382"
     inkscape:window-height="625"
     id="namedview1438"
     showgrid="false"
     inkscape:zoom="0.21648045"
     inkscape:cx="716"
     inkscape:cy="468"
     inkscape:window-x="0"
     inkscape:window-y="23"
     inkscape:window-maximized="0"
     inkscape:current-layer="svg2" />
  <path
     style="fill:#aa3a16;stroke:#000000;stroke-opacity:1;stroke-width:8;stroke-miterlimit:4;stroke-dasharray:none;stroke-linejoin:round"
     d="M815 163L816 165C809.847 165 803.043 164.195 797 165.482C791.452 166.665 785.043 170.407 780.17 173.309C776.61 175.43 773.015 177.985 770.209 181.042C768.431 182.98 766.813 186.563 763.896 186.901C759.217 187.444 755.182 182.242 750.83 181.278C747.34 180.505 743.55 181.168 740 180.83C725.932 179.491 702.436 178.377 700 197C695.438 196.289 693.338 192.431 688.982 191.394C685.71 190.616 682.28 191.341 679 190.586C668.096 188.074 658.457 186.118 647.015 187.058C644.077 187.299 641.77 189.109 638.911 189.42C627.902 190.617 617.756 190.472 608 196.919C602.293 200.69 595.336 207.25 591.6 213.004C589.199 216.7 589.797 221.312 585.867 224.107C582.349 226.608 577.989 225.657 574 226.479C566.074 228.113 554.93 235.656 554 244L551 244C550.998 246.709 551.495 250.209 549.972 252.61C547.13 257.09 540.384 258.498 536.785 262.39C534.397 264.972 531.772 268.682 530.583 271.999C529.504 275.012 529.972 278.453 526.656 280.142C521.098 282.973 513.025 280.149 507 281.343C498.347 283.058 491.055 288.916 484 293.759C480.321 296.285 476.78 298.18 474.26 302.04C472.47 304.782 472.541 307.851 471.147 310.675C469.223 314.571 465.185 316.864 463.39 321.001C461.457 325.458 461.34 330.291 460.561 335C458.84 345.404 456.826 355.285 458.29 365.996C460.008 378.567 467.615 389.053 465 402L460 402C458.48 397.115 453.304 395.526 451 391C445.197 391.021 441.856 391.674 441 398L437 398C436.981 403.453 434.88 407.745 434.188 413C433.081 421.416 433.981 430.624 435.093 438.985C436.193 447.246 444.732 451.21 446.525 459.17C447.462 463.326 445.022 466.304 444.263 470.17C442.976 476.725 442.227 483.39 441 490C432.244 485.78 434.492 473.121 436 465C427.736 466.333 425.379 476.777 424.965 484C424.011 500.624 423.89 514.932 428.455 531C429.169 533.511 428.868 536.134 429.884 538.576C432.595 545.087 436.403 551.169 440.333 556.996C442.114 559.636 445.534 562.855 446.069 566.085C446.758 570.239 441.831 572.193 441.144 576.054C438.314 591.962 438.853 609.827 447.14 623.999C451.911 632.158 462.22 640.599 471 644.12C477.608 646.769 485.861 644.991 489.986 652.325C492.669 657.095 488.704 664.644 489.09 670C489.42 674.571 491.349 677.899 493.1 682C496.603 690.208 500.257 699.937 508.054 705.273C513.987 709.333 522.014 707.328 528.424 710.434C530.491 711.437 532.792 712.711 533.518 715.058C534.381 717.849 531.898 721.676 535.319 723.397C537.298 724.394 539.872 724.005 541.985 724.648C547.399 726.296 552.403 729.083 558 730.447C562.186 731.467 566.714 731.169 570.985 731.884C577.947 733.051 584.909 735.562 592 735.957C601.616 736.492 610.672 733.704 620.015 733.054C628.566 732.459 637.371 734.099 646 733.996C656.643 733.87 667.361 732.098 678 732.019C683.32 731.98 687.721 734.88 693 734.981C703.277 735.176 713.624 733 724 733C733.942 733 743.438 733.834 753.17 734.571C756.424 734.817 759.701 733.88 763 734.09C767.975 734.407 772.967 736.035 777.961 735.907C781.416 735.818 784.508 734.147 788.004 734.019C793.374 733.821 798.692 734.882 804 734.741C818.65 734.35 833.3 734 848 734C868.427 734 888.713 732.821 909 732.821C914.114 732.821 918.827 731.745 924 732.424C931.912 733.463 940.029 733.013 948 733C951.799 732.994 956.183 733.394 959.099 730.486C964.468 725.131 969.113 711.471 960.481 706.804C954.907 703.79 943.337 706.293 938 709C936.683 705.563 936.041 702.7 936 699C939.974 698.561 943.613 697.084 946.582 694.275C949.905 691.129 950.006 687.815 955 687L954 695C958.762 694.37 965.509 693.78 969.911 692.006C974.093 690.32 977.485 686.867 981.286 684.517C986.797 681.109 992.283 678.018 996.419 672.741C998.882 669.598 999.493 665.042 1001.07 661.424C1006.13 649.875 1010.54 639.913 1010.96 627C1011.13 621.595 1010.43 615.006 1008.25 610.039C1007.1 607.416 1003.16 603.309 1004.3 600.299C1005.38 597.483 1012.27 593.773 1015.02 593.039C1026.06 590.097 1035.18 578.297 1039.31 568.015C1041.64 562.187 1045.77 557.247 1038 554C1036.19 558.065 1034.51 560.287 1030 561C1030.4 553.645 1034.36 540.089 1039.13 534.329C1043.15 529.489 1050.89 529.708 1052 523C1061.73 520.258 1065.7 510.013 1068.69 501.285C1074.14 485.411 1077.74 468.803 1074.74 452C1073.99 447.843 1071.72 444.195 1071 440C1065.39 436.964 1066.62 430.859 1063.36 426.004C1060.24 421.349 1049.09 417.278 1048.53 411.897C1047.98 406.6 1055 400.931 1056.75 396C1060.47 385.581 1060.49 369.373 1056.69 359C1052.07 346.387 1044.33 335.637 1034.56 326.555C1030.74 323.008 1022.47 321.043 1020.03 316.853C1017.47 312.453 1020.93 305.78 1021 301C1021.13 291.01 1018.57 280.435 1012.24 272.428C1008.54 267.754 1002.52 264.23 996.911 262.32C991.274 260.399 984.08 259.556 981 254L985 254C985.469 248.06 986.623 242.081 985.87 236.089C985.432 232.6 983.55 229.512 983 226L979 226C976.631 207.917 952.971 199.02 937 200.089C932.017 200.423 924.775 204.418 920.189 203.378C916.148 202.462 916.651 198.121 914.995 195.258C913.173 192.107 909.219 188.32 905.982 186.724C896.788 182.19 887.866 190.204 879.17 187.447C875.292 186.217 872.142 182.736 869 180.325C863.431 176.051 856.233 170.547 849.985 167.394C845.531 165.146 839.86 165.409 835 164.9C828.162 164.183 821.986 163 815 163z"
     id="path762" />
  <path
     style="fill:#e7dbaf; stroke:none;"
     d="M806.322 224.028C803.947 225.631 803.996 229.006 806.434 230.486C809.121 232.116 814.973 232.772 817.681 230.973C820.078 229.381 820.154 226.151 817.681 224.653C814.937 222.989 809.116 222.141 806.322 224.028M699 238C698.791 231.096 690.692 226.012 684.654 231.603C678.02 237.747 686.866 240.584 691.998 239.741C694.367 239.352 696.649 238.483 699 238M580 269C590.069 268.784 592.993 263.444 593 254C583.379 254.034 578.233 259.335 580 269M942.318 310.161C936.525 313.029 942.834 328.236 948.432 324.914C954.484 321.322 949.549 306.581 942.318 310.161M521 357C524.399 356.998 528.509 357.506 531.442 355.427C535.802 352.337 539.214 339.797 535.107 335.603C529.139 329.511 522.776 341.314 522.129 346C521.629 349.617 521.287 353.358 521 357z"
     id="path764" />
  <path
     style="fill:#32241c; stroke:none;"
     d="M715 516C713.459 511.617 710.07 512.351 706 511.872C699.943 511.16 692.617 510.189 687.04 507.701C671.919 500.956 664.084 484.48 662 469L658 469C658.001 475.509 659.654 480.725 661 487C650.852 484.277 641.458 475.626 637.129 466C636.149 463.821 634.447 453.272 631.17 453.921C628.08 454.533 628.885 460.946 629.433 463C630.61 467.414 634.301 470.744 635.95 475C637.63 479.338 637 484.435 637 489C637 515.143 649.105 539.385 672.015 552.948C680.408 557.916 685.941 560.733 695.961 559.945C706.01 559.155 711.575 544.802 710.825 536.001C710.107 527.579 703.525 519.423 715 516z"
     id="path766" />
  <path
     style="fill:#e7dbaf; stroke:none;"
     d="M501.295 466.782C493.63 469.848 494.414 489.196 504.606 484.396C510.276 481.725 509.279 463.589 501.295 466.782z"
     id="path768" />
  <path
     style="fill:#aa3a16; stroke:none;"
     d="M640 494C641.822 489.658 640.348 485.577 644 482C638.43 480.749 640 490.5 640 494z"
     id="path770" />
  <path
     style="fill:#e7dbaf; stroke:none;"
     d="M985 497C990.315 496.171 997.057 487.56 991.397 482.662C987.041 478.892 984.029 486.873 984.109 489.998C984.168 492.334 984.708 494.686 985 497z"
     id="path772" />
  <path
     style="fill:#28bd68; stroke:none;"
     d="M642 482C643.248 482.685 643.548 482.749 645 483C643.752 482.315 643.452 482.251 642 482z"
     id="path774" />
  <path
     style="fill:#e7dbaf; stroke:none;"
     d="M641 483C641.003 508.349 648.983 532.611 671.039 547.305C678.603 552.343 690.997 559.375 699.624 552.297C708.935 544.659 706.384 528.002 700.319 519.148C697.122 514.481 686.979 513.571 682 510.405C675.47 506.253 672.01 500.083 666.446 495.13C662.567 491.677 656.563 490.513 651.996 488.157C648.125 486.159 645.416 483.645 641 483z"
     id="path776" />
  <path
     style="fill:#aa3a16; stroke:none;"
     d="M645 483L646 484L645 483M646 484C648.122 486.37 650.072 487.758 653 489C650.911 486.348 649.199 485.086 646 484z"
     id="path778" />
  <path
     style="fill:#32241c; stroke:none;"
     d="M598 486C593.408 498.377 580.8 512.086 567 513.867C560.031 514.765 553.554 510.639 547 512C549.021 516.196 553.49 517.285 555.566 521.143C556.953 523.721 556.774 526.851 557.746 529.576C561.585 540.336 568.547 556.649 579.424 562.062C587.605 566.133 596.492 559.063 600.393 552.285C607.489 539.953 601.349 522.439 598 510C605.993 508.008 619.496 504.324 621 495C616.93 496.067 614.558 498.828 610.925 500.74C605.365 503.665 600.14 504 594 504C596.868 497.239 601.38 493.78 602 486L598 486z"
     id="path780" />
  <path
     style="fill:#aa3a16; stroke:none;"
     d="M655.667 489.333C655.222 489.778 656.278 489.722 656.333 489.667C656.778 489.222 655.722 489.278 655.667 489.333M658 491C659.248 491.685 659.548 491.749 661 492C659.752 491.315 659.452 491.251 658 491M661 492C662.248 492.685 662.548 492.749 664 493C662.752 492.315 662.452 492.251 661 492z"
     id="path782" />
  <path
     style="fill:#28bd68; stroke:none;"
     d="M641 493L641 497C641.71 495.24 641.71 494.76 641 493z"
     id="path784" />
  <path
     style="fill:#aa3a16; stroke:none;"
     d="M667 496L668 497L667 496M641 497L641 505C642.161 502.23 642.161 499.77 641 497M669 499L670 500L669 499M671 501L672 502L671 501M651 504L656 503C653.7 502.084 652.623 502.121 651 504M672 502L673 503L672 502z"
     id="path786" />
  <path
     style="fill:#32241c; stroke:none;"
     d="M652.318 503.786C649.137 505.145 649.923 510.306 650.29 513C651.155 519.341 659.067 535.984 667.772 532.242C671.104 530.81 670.876 526.938 670.054 524C668.43 518.199 664.352 511.2 660.215 506.823C658.294 504.79 655.285 502.518 652.318 503.786z"
     id="path788" />
  <path
     style="fill:#28bd68; stroke:none;"
     d="M656.667 503.333C656.222 503.778 657.278 503.722 657.333 503.667C657.778 503.222 656.722 503.278 656.667 503.333z"
     id="path790" />
  <path
     style="fill:#aa3a16; stroke:none;"
     d="M658 504L659 505L658 504M674 504L675 505L674 504M642 505L643 511C643.889 508.492 643.495 507.185 642 505M649 505L649 511C649.951 508.715 649.951 507.285 649 505M659 505L660 506L659 505M660.333 506.667C660.278 506.722 660.222 507.778 660.667 507.333C660.722 507.278 660.778 506.222 660.333 506.667M676 506L677 507L676 506z"
     id="path792" />
  <path
     style="fill:#28bd68; stroke:none;"
     d="M661 507L662 508L661 507z"
     id="path794" />
  <path
     style="fill:#aa3a16; stroke:none;"
     d="M677 507C678.223 508.195 678.42 508.316 680 509C678.777 507.805 678.58 507.684 677 507M585 508C586.969 509.063 588.799 509.532 591 510C588.943 508.418 587.612 508.174 585 508M662.333 508.667C662.278 508.722 662.222 509.778 662.667 509.333C662.722 509.278 662.778 508.222 662.333 508.667z"
     id="path796" />
  <path
     style="fill:#e7dbaf; stroke:none;"
     d="M562 520L562 525C565.362 524.6 568.752 523.124 571.996 524.707C577.216 527.254 584.903 538.698 581.731 544.725C580.451 547.157 577.364 548.053 575 549C576.63 556.69 587.451 561.282 593.348 554.697C600.931 546.229 598.777 529.621 595.189 520C593.757 516.16 592.158 509.561 587.049 509.376C584.012 509.266 581.473 512.147 578.985 513.525C573.791 516.403 567.804 518.792 562 520z"
     id="path798" />
  <path
     style="fill:#aa3a16; stroke:none;"
     d="M680.667 509.333C680.222 509.778 681.278 509.722 681.333 509.667C681.778 509.222 680.722 509.278 680.667 509.333M583 510L584 511L583 510z"
     id="path800" />
  <path
     style="fill:#28bd68; stroke:none;"
     d="M591.333 510.667C591.278 510.722 591.222 511.778 591.667 511.333C591.722 511.278 591.778 510.222 591.333 510.667z"
     id="path802" />
  <path
     style="fill:#aa3a16; stroke:none;"
     d="M663 510C663.936 511.949 664.392 512.55 666 514C665.064 512.051 664.608 511.45 663 510M682 510C683.223 511.195 683.42 511.316 685 512C683.777 510.805 683.58 510.684 682 510M577 513C579.462 513.697 580.665 513.11 583 512C580.726 511.591 579.219 512.212 577 513z"
     id="path804" />
  <path
     style="fill:#28bd68; stroke:none;"
     d="M649 511L649 514C649.696 512.446 649.696 512.554 649 511z"
     id="path806" />
  <path
     style="fill:#aa3a16; stroke:none;"
     d="M685 512C686.789 513.422 687.706 513.697 690 514C688.307 512.938 686.96 512.48 685 512M644 513L645 518C645.779 516.231 645.912 514.964 646 513L644 513M574 516C575.58 515.317 575.777 515.195 577 514C575.42 514.684 575.223 514.805 574 516M593.333 514.667C593.278 514.722 593.222 515.778 593.667 515.333C593.722 515.278 593.778 514.222 593.333 514.667M650.333 514.667C650.278 514.722 650.222 515.778 650.667 515.333C650.722 515.278 650.778 514.222 650.333 514.667M691 514C692.734 516.003 694.355 515.923 697 516C694.987 514.775 693.341 514.355 691 514M666 515L667 519C667.393 517.076 667.146 516.641 666 515M566 517C568.523 517.99 570.358 517.617 573 517C570.607 516.259 568.507 516.698 566 517z"
     id="path808" />
  <path
     style="fill:#28bd68; stroke:none;"
     d="M650.333 516.667C650.278 516.722 650.222 517.778 650.667 517.333C650.722 517.278 650.778 516.222 650.333 516.667z"
     id="path810" />
  <path
     style="fill:#aa3a16; stroke:none;"
     d="M699.333 516.667C699.278 516.722 699.222 517.778 699.667 517.333C699.722 517.278 699.778 516.222 699.333 516.667M594.333 517.667C594.278 517.722 594.222 518.778 594.667 518.333C594.722 518.278 594.778 517.222 594.333 517.667M561 524C562.255 522.075 563.3 520.548 565 519C561.546 518.223 561.227 521.06 561 524z"
     id="path812" />
  <path
     style="fill:#28bd68; stroke:none;"
     d="M563 519C564.809 519.574 565.069 519.465 567 519C565.341 518.594 564.758 518.691 563 519z"
     id="path814" />
  <path
     style="fill:#aa3a16; stroke:none;"
     d="M646 518L648 522C648.369 519.777 647.86 519.266 646 518z"
     id="path816" />
  <path
     style="fill:#28bd68; stroke:none;"
     d="M668.333 518.667C668.278 518.722 668.222 519.778 668.667 519.333C668.722 519.278 668.778 518.222 668.333 518.667M700.333 518.667C700.277 518.722 700.222 519.778 700.667 519.333C700.722 519.278 700.778 518.222 700.333 518.667z"
     id="path818" />
  <path
     style="fill:#aa3a16; stroke:none;"
     d="M595.333 519.667C595.278 519.722 595.222 520.778 595.667 520.333C595.722 520.278 595.778 519.222 595.333 519.667M701.333 519.667C701.278 519.722 701.222 520.778 701.667 520.333C701.722 520.278 701.778 519.222 701.333 519.667z"
     id="path820" />
  <path
     style="fill:#28bd68; stroke:none;"
     d="M669.333 520.667C669.278 520.722 669.222 521.778 669.667 521.333C669.722 521.278 669.778 520.222 669.333 520.667z"
     id="path822" />
  <path
     style="fill:#aa3a16; stroke:none;"
     d="M653 521L654 522L653 521M596.333 522.667C596.278 522.722 596.222 523.778 596.667 523.333C596.722 523.278 596.778 522.222 596.333 522.667M654.333 522.667C654.278 522.722 654.222 523.778 654.667 523.333C654.722 523.278 654.778 522.222 654.333 522.667M567 523C568.506 523.683 569.315 523.826 571 524C569.494 523.317 568.685 523.174 567 523M571.667 524.333C571.222 524.778 572.278 524.722 572.333 524.667C572.778 524.222 571.722 524.278 571.667 524.333M650 524L651 528C651.393 526.076 651.146 525.641 650 524M670.333 524.667C670.278 524.722 670.222 525.778 670.667 525.333C670.722 525.278 670.778 524.222 670.333 524.667M703.333 524.667C703.278 524.722 703.222 525.778 703.667 525.333C703.722 525.278 703.778 524.222 703.333 524.667M562 525C563.248 525.685 563.548 525.749 565 526C563.752 525.315 563.452 525.251 562 525M573 525L574 526L573 525M597 525L597 528C597.696 526.446 597.696 526.554 597 525M574 526L575 527L574 526z"
     id="path824" />
  <path
     style="fill:#28bd68; stroke:none;"
     d="M656.333 526.667C656.278 526.722 656.222 527.778 656.667 527.333C656.722 527.278 656.778 526.222 656.333 526.667z"
     id="path826" />
  <path
     style="fill:#aa3a16; stroke:none;"
     d="M704.333 526.667C704.278 526.722 704.222 527.778 704.667 527.333C704.722 527.278 704.778 526.222 704.333 526.667z"
     id="path828" />
  <path
     style="fill:#28bd68; stroke:none;"
     d="M576 527C576.547 528.875 577.11 530.255 578 532C578.375 529.581 577.693 528.782 576 527z"
     id="path830" />
  <path
     style="fill:#aa3a16; stroke:none;"
     d="M657 528C657.545 529.635 657.365 529.455 659 530L659 528L657 528z"
     id="path832" />
  <path
     style="fill:#28bd68; stroke:none;"
     d="M704 528L704 531C704.696 529.446 704.696 529.554 704 528z"
     id="path834" />
  <path
     style="fill:#aa3a16; stroke:none;"
     d="M598 529L598 545C599.812 540.681 599.812 533.319 598 529M653.333 529.667C653.278 529.722 653.222 530.778 653.667 530.333C653.722 530.278 653.778 529.222 653.333 529.667M659 530L660 531L659 530M705.333 530.667C705.278 530.722 705.222 531.778 705.667 531.333C705.722 531.278 705.778 530.222 705.333 530.667z"
     id="path836" />
  <path
     style="fill:#28bd68; stroke:none;"
     d="M654 531C654.545 532.635 654.365 532.455 656 533C655.455 531.365 655.635 531.545 654 531z"
     id="path838" />
  <path
     style="fill:#aa3a16; stroke:none;"
     d="M660 531L661 532L660 531M654 532L655 533L654 532M661 532C663.308 533.759 665.092 533.917 668 534C665.749 532.911 663.465 532.481 661 532z"
     id="path840" />
  <path
     style="fill:#28bd68; stroke:none;"
     d="M705.333 532.667C705.278 532.722 705.222 533.778 705.667 533.333C705.722 533.278 705.778 532.222 705.333 532.667z"
     id="path842" />
  <path
     style="fill:#aa3a16; stroke:none;"
     d="M579.333 533.667C579.278 533.722 579.222 534.778 579.667 534.333C579.722 534.278 579.778 533.222 579.333 533.667M656 534L657 535L656 534z"
     id="path844" />
  <path
     style="fill:#28bd68; stroke:none;"
     d="M580 535L581 539C581.393 537.076 581.146 536.64 580 535z"
     id="path846" />
  <path
     style="fill:#aa3a16; stroke:none;"
     d="M657 535L658 536L657 535M706 535L706 540C706.83 537.97 706.83 537.03 706 535M658 536L659 537L658 536M661 539L662 540L661 539M662 540L663 541L662 540z"
     id="path848" />
  <path
     style="fill:#28bd68; stroke:none;"
     d="M705 540L705 543C705.696 541.446 705.696 541.554 705 540M582 541L582 545C582.71 543.24 582.71 542.76 582 541z"
     id="path850" />
  <path
     style="fill:#aa3a16; stroke:none;"
     d="M663 541L664 542L663 541M664 542L665 543L664 542M665 543C665.545 544.635 665.365 544.455 667 545L667 543L665 543M705.333 543.667C705.278 543.722 705.222 544.778 705.667 544.333C705.722 544.278 705.778 543.222 705.333 543.667z"
     id="path852" />
  <path
     style="fill:#28bd68; stroke:none;"
     d="M581.333 545.667C581.278 545.722 581.222 546.778 581.667 546.333C581.722 546.278 581.778 545.222 581.333 545.667z"
     id="path854" />
  <path
     style="fill:#aa3a16; stroke:none;"
     d="M667 545C668.717 546.84 669.566 547.349 672 548C670.337 546.497 669.104 545.801 667 545M579.667 546.333C579.222 546.778 580.278 546.722 580.333 546.667C580.778 546.222 579.722 546.278 579.667 546.333M596 547L595 553C596.654 550.823 596.994 549.575 596 547M703 547L701 551C702.86 549.734 703.369 549.223 703 547z"
     id="path856" />
  <path
     style="fill:#28bd68; stroke:none;"
     d="M574 551L577 549C574.86 547.882 574.473 548.749 574 551z"
     id="path858" />
  <path
     style="fill:#aa3a16; stroke:none;"
     d="M674 549L675 550L674 549M675 550C676.896 552.02 678.415 552.995 681 554C679.104 551.819 677.741 550.931 675 550M574 551L575 552L574 551M575 552L576 553L575 552M594.333 553.667C594.278 553.722 594.222 554.778 594.667 554.333C594.722 554.278 594.778 553.222 594.333 553.667z"
     id="path860" />
  <path
     style="fill:#28bd68; stroke:none;"
     d="M681.667 553.333C681.222 553.778 682.278 553.722 682.333 553.667C682.778 553.222 681.722 553.278 681.667 553.333M698 553L699 554L698 553z"
     id="path862" />
  <path
     style="fill:#aa3a16; stroke:none;"
     d="M699 553L700 554L699 553M577 554L578 555L577 554M682.667 554.333C682.222 554.778 683.278 554.722 683.333 554.667C683.778 554.222 682.722 554.278 682.667 554.333z"
     id="path864" />
  <path
     style="fill:#28bd68; stroke:none;"
     d="M695 554C696.248 554.685 696.549 554.749 698 555C696.752 554.315 696.452 554.251 695 554z"
     id="path866" />
  <path
     style="fill:#aa3a16; stroke:none;"
     d="M578.667 555.333C578.222 555.778 579.278 555.722 579.333 555.667C579.778 555.222 578.722 555.278 578.667 555.333M684 555C687.432 556.44 691.3 556 695 556C691.568 554.56 687.7 555 684 555M592 556L593 557L592 556M581 557C583.308 558.759 585.092 558.917 588 559C585.748 557.911 583.465 557.481 581 557M588 557C589.248 557.685 589.549 557.749 591 558C589.752 557.315 589.451 557.251 588 557z"
     id="path868" />
  <path
     style="fill:#32241c; stroke:none;"
     d="M661 656C668.263 653.895 667.624 645.574 671.941 640.22C676.898 634.071 683.376 629.046 688.284 622.83C690.877 619.546 691.248 615.4 693.56 612.015C700.549 601.783 713.413 592.113 726 592C726 596.355 724.385 604.901 727.742 608.258C730.365 610.88 735.649 610 739 610C748.75 610.001 758.304 609.416 768 609C767.875 604.776 764.269 598.163 767.024 594.376C769.125 591.487 778.216 596.12 780.71 597.61C784.546 599.9 787.112 603.57 790.443 606.441C794.894 610.277 799.653 613.609 803.539 618.089C805.922 620.837 807.562 625.15 810.451 627.338C813.543 629.68 815.244 625.997 814.431 623.282C813.43 619.935 810.344 616.674 808.286 613.911C801.639 604.984 793.694 597.361 784.17 591.951C776.561 587.628 767.468 581.996 758.911 579.963C734.207 574.094 703.716 587.654 687.634 606.259C684.792 609.548 683.73 613.939 681.144 617.385C672.742 628.578 663.029 641.765 661 656z"
     id="path870" />
  <path
     style="fill:#aa3a16; stroke:none;"
     d="M733 588C737.65 589.947 742.205 587.947 747 587.529C750.937 587.185 755.031 587.989 759 588C750.59 584.438 741.682 587.928 733 588z"
     id="path872" />
  <path
     style="fill:#e7dbaf; stroke:none;"
     d="M746 587.454C738.592 588.426 731.796 588.089 732.016 596.999C732.065 598.99 732.032 601.588 733.742 602.972C735.589 604.466 738.801 603.995 741 604C746.449 604.011 752.565 604.768 757.941 603.852C763.398 602.922 762.588 593.065 759.822 589.603C757.572 586.788 749.239 587.028 746 587.454z"
     id="path874" />
  <path
     style="fill:#aa3a16; stroke:none;"
     d="M760.333 588.667C760.278 588.722 760.222 589.778 760.667 589.333C760.722 589.278 760.778 588.222 760.333 588.667M761.333 590.667C761.278 590.722 761.222 591.778 761.667 591.333C761.722 591.278 761.778 590.222 761.333 590.667M731 591L731 602C732.431 598.59 732.431 594.41 731 591z"
     id="path876" />
  <path
     style="fill:#28bd68; stroke:none;"
     d="M761 592L761 597C761.83 594.97 761.83 594.03 761 592z"
     id="path878" />
  <path
     style="fill:#e7dbaf; stroke:none;"
     d="M952 609C958.159 608.586 968.667 600.796 962.972 593.603C958.458 587.901 952.393 595.51 952.055 600C951.831 602.975 952 606.017 952 609z"
     id="path880" />
  <path
     style="fill:#32241c; stroke:none;"
     d="M204 627C204.568 630.582 205.508 631.943 209 633L209 627L204 627z"
     id="path884" />
  <path
     style="fill:#e7dbaf; stroke:none;"
     d="M516.603 634.032C511.66 637.853 518.602 651.295 524.258 646.957C529.245 643.132 522.97 629.111 516.603 634.032z"
     id="path886" />
  <path
     style="fill:#aa3a16; stroke:none;"
     d="M1375 633C1374.48 635.337 1374.52 636.64 1375 639C1375.95 636.715 1375.95 635.285 1375 633M1023 656L1022 660C1024.7 659.422 1024.79 658.739 1025 656L1023 656z"
     id="path888" />
  <path
     style="fill:#28bd68; stroke:none;"
     d="M456 660C457.378 663.687 459.196 665.074 463 666C462.619 661.11 460.724 660.155 456 660z"
     id="path890" />
  <path
     style="fill:#32241c; stroke:none;"
     d="M145 681C148.066 680.503 149.032 679.964 150 677C147.064 677.627 145.987 678.147 145 681M1264 692C1273.45 691.263 1265.98 682.52 1264 692z"
     id="path892" />
  <path
     style="fill:#e7dbaf; stroke:none;"
     d="M801.044 689.858C797.849 691.238 793.83 697.043 798.434 699.397C801.499 700.963 810.553 700.836 813.656 699.397C816.967 697.861 818.392 691.635 814.682 689.742C811.449 688.093 804.304 688.45 801.044 689.858M689 708C692.759 708.479 695.835 710.217 699.428 711.282C703.576 712.51 713.721 709.524 709.547 703.568C706.727 699.543 694.253 698.051 690.742 701.602C689.067 703.297 689.121 705.805 689 708z"
     id="path894" />
  <path
     style="fill:#28bd68; stroke:none;"
     d="M172 703C172.968 705.964 173.934 706.503 177 707C176.032 704.036 175.066 703.497 172 703z"
     id="path898" />
</svg>
