<?xml version="1.0" encoding="UTF-8" standalone="no"?>
<svg
   xmlns:dc="http://purl.org/dc/elements/1.1/"
   xmlns:cc="http://creativecommons.org/ns#"
   xmlns:rdf="http://www.w3.org/1999/02/22-rdf-syntax-ns#"
   xmlns:svg="http://www.w3.org/2000/svg"
   xmlns="http://www.w3.org/2000/svg"
   xmlns:sodipodi="http://sodipodi.sourceforge.net/DTD/sodipodi-0.dtd"
   xmlns:inkscape="http://www.inkscape.org/namespaces/inkscape"
   width="1432"
   height="936"
   id="svg2"
   version="1.1"
   inkscape:version="0.91 r13725"
   sodipodi:docname="8.svg">
  <metadata
     id="metadata1456">
    <rdf:RDF>
      <cc:Work
         rdf:about="">
        <dc:format>image/svg+xml</dc:format>
        <dc:type
           rdf:resource="http://purl.org/dc/dcmitype/StillImage" />
      </cc:Work>
    </rdf:RDF>
  </metadata>
  <defs
     id="defs1454" />
  <sodipodi:namedview
     pagecolor="#ffffff"
     bordercolor="#666666"
     borderopacity="1"
     objecttolerance="10"
     gridtolerance="10"
     guidetolerance="10"
     inkscape:pageopacity="0"
     inkscape:pageshadow="2"
     inkscape:window-width="1365"
     inkscape:window-height="648"
     id="namedview1452"
     showgrid="false"
     inkscape:zoom="0.21648045"
     inkscape:cx="716"
     inkscape:cy="468"
     inkscape:window-x="0"
     inkscape:window-y="23"
     inkscape:window-maximized="0"
     inkscape:current-layer="svg2" />
  <path
     style="fill:#aa3a16;stroke:#000000;stroke-opacity:1;stroke-width:8;stroke-miterlimit:4;stroke-dasharray:none;stroke-linejoin:round"
     d="M1298 76L1299 77L1298 76M659 209C650.823 207.959 643.232 203.253 635 203.015C628.409 202.825 623.255 206.129 617 206.454C607.843 206.931 597.97 203.618 589.015 205.228C583.821 206.161 580.636 208.98 575 209C572.955 212.516 569.429 213.244 566.286 215.681C561.427 219.447 556.896 224.039 553.264 229C548.751 235.164 548.619 245.607 542.786 250.487C539.766 253.014 535.52 253.277 532 254.789C527.567 256.692 522.738 259.985 519.39 263.465C516.465 266.505 511.616 272.04 510.434 276.089C509.137 280.532 511.277 285.783 507.566 289.427C503.322 293.596 495.92 292.335 491.209 296.414C485.155 301.657 486.669 306.403 484.411 313C482.043 319.922 476.838 325.679 475 333C472.45 332.003 469.799 330.336 467 330.272C455.094 330.001 445.803 340.441 440.732 349.83C437.407 355.988 432.63 364.32 431.264 371.17C429.242 381.312 430.019 396.145 433.328 405.911C434.289 408.747 436.057 411.142 437 414C437.685 412.752 437.749 412.452 438 411C440.975 418.065 432.886 423.756 428.5 428.333C426.244 430.688 424.417 435.563 421 433C416.234 448.377 411.51 464.603 415.313 481C415.903 483.541 417.578 485.567 418.431 488C419.413 490.802 419.318 493.819 420.679 496.522C423.356 501.84 429.29 504.918 432 510C432.685 508.752 432.749 508.452 433 507C434.986 513.72 434.585 521.999 435.486 528.995C435.726 530.859 435.38 533.793 432.871 533.793C428.076 533.793 427.513 525.547 423 524L423 528C415.856 530.447 412.552 546.255 413.424 553C413.967 557.194 413.344 561.894 414.429 565.961C417.903 578.98 426.831 587.517 440 590C447.31 587.329 444.245 598.385 443.835 602.004C442.798 611.16 441.189 623.053 443.989 632C447.207 642.283 456.604 651.434 465.285 657.175C470.377 660.542 479.459 658.869 483.508 662.742C486.044 665.167 483.723 668.22 483.337 670.998C482.968 673.658 483.885 675.68 485 678L488 677C487.309 686.153 491.717 694.602 501.001 697.972C505.035 699.437 509.756 698.923 513.482 701.264C516.983 703.464 517.907 707.369 520.684 710.121C527.104 716.484 533.57 716 542 716C541.888 719.524 541.54 721.516 539 724C540.813 724.739 543.112 724.484 544.806 725.611C546.972 727.054 547.745 729.805 550.079 731.111C552.113 732.249 554.593 731.862 556.736 732.694C559.45 733.749 561.371 736.162 564.06 737.25C566.72 738.326 573.462 739.225 574 736C579.471 737.288 584.479 735.816 590 736.04C595.415 736.26 600.475 738.309 605.961 737.945C608.743 737.76 611.267 736.258 614.039 736.258C620.97 736.258 628.015 739.62 635 739.96C659.21 741.137 683.759 740 708 740C730.302 740 752.709 740.638 775 739.985C780.117 739.835 784.829 738.028 790 738.001C796.917 737.965 804.111 737.464 811 738.104C817.854 738.741 823.959 740.269 831 739.961C843.35 739.42 855.681 737.579 868 737.039C884.985 736.296 902.106 738.192 919 737.741C925.438 737.569 930.845 734.877 937 734L937 731C944.215 731 953.868 733.769 960.775 731.682C965.852 730.148 965.949 722.152 960.941 720.514C956.55 719.077 951.479 720.876 947 720.985C937.263 721.224 927.701 719.842 918 720.005C910.783 720.125 904.708 724.495 899.861 717.001C899.03 715.715 898.569 714.408 898 713C903.744 713 910.885 714.062 915.66 710.146C920.774 705.951 919.2 699.595 927 699C926.977 701.738 925.529 707.073 927.117 709.397C928.494 711.41 931.911 710.985 934 710.999C941.602 711.052 946.833 708.934 954 707C954.462 703.285 960.087 700.75 962.417 697.611C964.338 695.023 964.082 691.745 965.722 689.25C966.779 687.643 968.305 687.451 970 687C969.816 682.98 969.471 679.378 966 677C968.712 671.013 972.389 670.834 977.714 668.046C983.151 665.199 987.669 662.403 994 662C995.462 656.638 1000.21 655.373 1003 651C1003.99 652.479 1004 652.203 1004 654C1008.83 648.328 1014.24 643.206 1018.1 636.714C1026.75 622.17 1029.61 603.731 1028.98 587.015C1028.83 583.03 1027.42 578.605 1025.73 574.999C1024.73 572.857 1022.7 570.57 1023.02 568.043C1023.46 564.669 1027.42 563.376 1029.62 561.367C1033.35 557.967 1038.01 552.242 1040.59 547.911C1045.57 539.528 1041.18 531.947 1041 523L1036 522C1037.19 519.32 1038.35 516.86 1039 514C1035.21 514.583 1032.6 516.95 1029 518C1029.02 513.489 1030.89 509.356 1030.89 505C1030.89 500.813 1027.89 497.261 1030.18 493.108C1032.17 489.502 1036.85 488.077 1039.91 485.535C1045.9 480.549 1052.7 473.781 1056.58 467C1065.98 450.59 1069.41 430.306 1062.98 412.004C1060.92 406.121 1056.74 399.881 1053.47 394.579C1047.49 384.899 1042.37 376.143 1030 374C1030.2 367.607 1034.18 362.484 1034.83 356C1037.48 329.538 1030 306.357 1008.54 289.844C1003.26 285.781 995.23 283.7 988.83 282.27C984.454 281.293 980.728 281.235 977.514 277.532C973.466 272.868 974.415 263.738 971.842 257.911C966.878 246.669 953.954 234.997 941 235.147C937.15 235.192 933.79 237.46 930 238C930 231.029 931.614 223.817 929.866 217.015C924.366 195.619 904.44 181.834 883.039 181.224C874.262 180.973 865.957 185.994 857 186C857.867 183.783 859.336 181.425 859.643 179.042C860.255 174.282 855.522 173.544 852 172.588C844.426 170.532 838.481 171.584 831 173.715C828.436 174.445 825.739 176.486 823.019 176.385C820.19 176.28 819.104 174.187 818 172L823 172C820.785 163.171 813.123 161.216 805.83 157.83C787.707 149.416 760.786 147.217 744.089 160.015C738.227 164.508 731.403 169.614 726.803 175.41C724.049 178.881 721.933 184.87 717.815 186.928C712.514 189.578 702.761 181.398 697.576 179.725C687.185 176.373 677.256 181.02 668 185.063C662.327 187.542 655.664 190.482 653.761 197.15C652.595 201.235 658.646 204.362 659 209z"
     id="path760" />
  <path
     style="fill:#e8dbaf; stroke:none;"
     d="M794 226C791.624 225.598 789.365 224.804 786.998 224.376C785.739 224.148 784.296 223.929 783.019 224.164C772.076 226.179 787.064 240.105 792.972 230.796C793.913 229.315 793.873 227.672 794 226M654 248C661.517 247.979 665.901 247.352 666 239C658.963 239.059 654.255 240.166 654 248M561 285C562.73 284.906 564.372 284.885 566.024 284.272C568.144 283.485 575.338 278.849 571.377 276.117C566.001 272.409 561.301 281.016 561 285M934 297C935.135 292.219 935.115 288.698 931.366 285.063C929.678 283.428 927.54 282.016 925.319 283.658C918.854 288.437 929.828 296.084 934 297M516 369C521.989 367.242 524.674 361.972 525 356C517.718 356.512 514.444 362.126 516 369z"
     id="path762" />
  <path
     style="fill:#32251c; stroke:none;"
     d="M713 513C707.524 512.999 704.028 511.449 698.911 510.299C688.305 507.914 678.993 505.321 672.263 495.573C668.492 490.11 666.195 484.254 664.164 478C662.846 473.938 662.329 470.402 658 469C658 472.617 659.925 479.521 658.597 482.681C656.414 487.877 649.989 481.56 647.964 479.71C642.891 475.072 639.129 469.958 636.29 463.715C635.07 461.03 635.484 456.751 633.277 454.662C631.168 452.667 629.434 454.937 629.188 457.059C628.244 465.214 635.814 470.1 637.32 477.17C639.031 485.201 636.169 494.684 637.29 503C640.029 523.318 654.868 542.797 672.015 552.948C679.956 557.649 692.066 564.616 701.285 558.106C708.164 553.249 711.741 542.187 710.572 534C709.989 529.921 707.527 525.129 707.901 521.058C708.21 517.696 711.967 516.189 713 513z"
     id="path764" />
  <path
     style="fill:#e8dbaf; stroke:none;"
     d="M986.339 457.176C982.384 459.136 981.821 470.599 987.7 468.338C992.479 466.5 991.06 454.837 986.339 457.176z"
     id="path766" />
  <path
     style="fill:#aa3a16; stroke:none;"
     d="M640 494C641.822 489.658 640.348 485.577 644 482C638.43 480.749 640 490.5 640 494z"
     id="path768" />
  <path
     style="fill:#28bd68; stroke:none;"
     d="M642 482C643.248 482.685 643.548 482.749 645 483C643.752 482.315 643.452 482.251 642 482z"
     id="path770" />
  <path
     style="fill:#e8dbaf; stroke:none;"
     d="M641 483C641.003 508.349 648.983 532.611 671.039 547.305C678.603 552.343 690.997 559.375 699.624 552.297C708.935 544.659 706.384 528.002 700.319 519.148C697.122 514.481 686.979 513.571 682 510.405C675.47 506.253 672.01 500.083 666.446 495.13C662.567 491.677 656.563 490.513 651.996 488.157C648.125 486.159 645.416 483.645 641 483z"
     id="path772" />
  <path
     style="fill:#aa3a16; stroke:none;"
     d="M645 483L646 484L645 483M646 484C648.122 486.37 650.072 487.758 653 489C650.911 486.348 649.199 485.086 646 484z"
     id="path774" />
  <path
     style="fill:#e8dbaf; stroke:none;"
     d="M501 485C499.196 485.021 496.979 484.783 495.299 485.603C491.485 487.467 491.033 495.042 493.893 497.851C496.698 500.607 499.882 499.544 500.772 495.941C501.079 494.694 500.978 493.275 500.996 492.002L501 485z"
     id="path776" />
  <path
     style="fill:#32251c; stroke:none;"
     d="M598 486C593.535 498.386 581.005 512.06 567 513.867C560.031 514.765 553.554 510.639 547 512C549.021 516.196 553.49 517.285 555.566 521.143C557.997 525.662 558.141 532.076 559.633 537.001C562.015 544.868 570.834 556.691 578.004 560.721C587.486 566.052 598.259 559.428 601.565 549.714C606.005 536.671 601.387 522.579 598 510C605.993 508.008 619.496 504.324 621 495C616.93 496.067 614.558 498.828 610.925 500.74C605.365 503.665 600.14 504 594 504C596.751 497.5 601.39 493.395 602 486L598 486z"
     id="path778" />
  <path
     style="fill:#aa3a16; stroke:none;"
     d="M655.667 489.333C655.222 489.778 656.278 489.722 656.333 489.667C656.778 489.222 655.722 489.278 655.667 489.333M658 491C659.248 491.685 659.548 491.749 661 492C659.752 491.315 659.452 491.251 658 491M661 492C662.248 492.685 662.548 492.749 664 493C662.752 492.315 662.452 492.251 661 492z"
     id="path780" />
  <path
     style="fill:#28bd68; stroke:none;"
     d="M641 493L641 497C641.71 495.24 641.71 494.76 641 493z"
     id="path782" />
  <path
     style="fill:#aa3a16; stroke:none;"
     d="M667 496L668 497L667 496M641 497L641 505C642.161 502.23 642.161 499.77 641 497M669 499L670 500L669 499M671 501L672 502L671 501M651 504L656 503C653.7 502.084 652.623 502.121 651 504M672 502L673 503L672 502z"
     id="path784" />
  <path
     style="fill:#32251c; stroke:none;"
     d="M652.318 503.786C649.137 505.145 649.923 510.306 650.29 513C651.155 519.341 659.067 535.984 667.772 532.242C671.104 530.81 670.876 526.938 670.054 524C668.43 518.199 664.352 511.2 660.215 506.823C658.294 504.79 655.285 502.518 652.318 503.786z"
     id="path786" />
  <path
     style="fill:#28bd68; stroke:none;"
     d="M656.667 503.333C656.222 503.778 657.278 503.722 657.333 503.667C657.778 503.222 656.722 503.278 656.667 503.333z"
     id="path788" />
  <path
     style="fill:#aa3a16; stroke:none;"
     d="M658 504L659 505L658 504M674 504L675 505L674 504M642 505L643 511C643.889 508.492 643.495 507.185 642 505M649 505L649 511C649.951 508.715 649.951 507.285 649 505M659 505L660 506L659 505M660.333 506.667C660.278 506.722 660.222 507.778 660.667 507.333C660.722 507.278 660.778 506.222 660.333 506.667M676 506L677 507L676 506z"
     id="path790" />
  <path
     style="fill:#28bd68; stroke:none;"
     d="M661 507L662 508L661 507z"
     id="path792" />
  <path
     style="fill:#aa3a16; stroke:none;"
     d="M677 507C678.223 508.195 678.42 508.316 680 509C678.777 507.805 678.58 507.684 677 507M585 508C586.969 509.063 588.799 509.532 591 510C588.943 508.418 587.612 508.174 585 508M662.333 508.667C662.278 508.722 662.222 509.778 662.667 509.333C662.722 509.278 662.778 508.222 662.333 508.667z"
     id="path794" />
  <path
     style="fill:#e8dbaf; stroke:none;"
     d="M562 520L562 525C565.362 524.6 568.752 523.124 571.996 524.707C577.216 527.254 584.903 538.698 581.731 544.725C580.451 547.157 577.364 548.053 575 549C576.63 556.69 587.451 561.282 593.348 554.697C600.931 546.229 598.777 529.621 595.189 520C593.757 516.16 592.158 509.561 587.049 509.376C584.012 509.266 581.473 512.147 578.985 513.525C573.791 516.403 567.804 518.792 562 520z"
     id="path796" />
  <path
     style="fill:#aa3a16; stroke:none;"
     d="M680.667 509.333C680.222 509.778 681.278 509.722 681.333 509.667C681.778 509.222 680.722 509.278 680.667 509.333M583 510L584 511L583 510z"
     id="path798" />
  <path
     style="fill:#28bd68; stroke:none;"
     d="M591.333 510.667C591.278 510.722 591.222 511.778 591.667 511.333C591.722 511.278 591.778 510.222 591.333 510.667z"
     id="path800" />
  <path
     style="fill:#aa3a16; stroke:none;"
     d="M663 510C663.936 511.949 664.392 512.55 666 514C665.064 512.051 664.608 511.45 663 510M682 510C683.223 511.195 683.42 511.316 685 512C683.777 510.805 683.58 510.684 682 510M577 513C579.462 513.697 580.665 513.11 583 512C580.63 511.411 579.293 512.045 577 513z"
     id="path802" />
  <path
     style="fill:#28bd68; stroke:none;"
     d="M649 511L649 514C649.696 512.446 649.696 512.554 649 511z"
     id="path804" />
  <path
     style="fill:#aa3a16; stroke:none;"
     d="M685 512C686.789 513.422 687.706 513.697 690 514C688.307 512.938 686.96 512.48 685 512M644 513L645 518C645.779 516.231 645.912 514.964 646 513L644 513M574 516C575.58 515.317 575.777 515.195 577 514C575.42 514.684 575.223 514.805 574 516M593.333 514.667C593.278 514.722 593.222 515.778 593.667 515.333C593.722 515.278 593.778 514.222 593.333 514.667M650.333 514.667C650.278 514.722 650.222 515.778 650.667 515.333C650.722 515.278 650.778 514.222 650.333 514.667M666 515L667 519C667.393 517.076 667.146 516.641 666 515M691 515C693.052 515.874 694.747 515.953 697 516C694.948 515.126 693.253 515.047 691 515M566 517C568.523 517.99 570.358 517.617 573 517C570.607 516.259 568.507 516.698 566 517z"
     id="path806" />
  <path
     style="fill:#28bd68; stroke:none;"
     d="M650.333 516.667C650.278 516.722 650.222 517.778 650.667 517.333C650.722 517.278 650.778 516.222 650.333 516.667z"
     id="path808" />
  <path
     style="fill:#aa3a16; stroke:none;"
     d="M699.333 516.667C699.278 516.722 699.222 517.778 699.667 517.333C699.722 517.278 699.778 516.222 699.333 516.667M594.333 517.667C594.278 517.722 594.222 518.778 594.667 518.333C594.722 518.278 594.778 517.222 594.333 517.667M561 524C562.255 522.075 563.3 520.548 565 519C561.546 518.223 561.227 521.06 561 524z"
     id="path810" />
  <path
     style="fill:#28bd68; stroke:none;"
     d="M563 519C564.809 519.574 565.069 519.465 567 519C565.341 518.594 564.758 518.691 563 519z"
     id="path812" />
  <path
     style="fill:#aa3a16; stroke:none;"
     d="M646 518L648 522C648.369 519.777 647.86 519.266 646 518z"
     id="path814" />
  <path
     style="fill:#28bd68; stroke:none;"
     d="M668.333 518.667C668.278 518.722 668.222 519.778 668.667 519.333C668.722 519.278 668.778 518.222 668.333 518.667M700.333 518.667C700.277 518.722 700.222 519.778 700.667 519.333C700.722 519.278 700.778 518.222 700.333 518.667z"
     id="path816" />
  <path
     style="fill:#aa3a16; stroke:none;"
     d="M595.333 519.667C595.278 519.722 595.222 520.778 595.667 520.333C595.722 520.278 595.778 519.222 595.333 519.667M701.333 519.667C701.278 519.722 701.222 520.778 701.667 520.333C701.722 520.278 701.778 519.222 701.333 519.667z"
     id="path818" />
  <path
     style="fill:#28bd68; stroke:none;"
     d="M669.333 520.667C669.278 520.722 669.222 521.778 669.667 521.333C669.722 521.278 669.778 520.222 669.333 520.667z"
     id="path820" />
  <path
     style="fill:#aa3a16; stroke:none;"
     d="M653 521L654 522L653 521M596.333 522.667C596.278 522.722 596.222 523.778 596.667 523.333C596.722 523.278 596.778 522.222 596.333 522.667M654.333 522.667C654.278 522.722 654.222 523.778 654.667 523.333C654.722 523.278 654.778 522.222 654.333 522.667M567 523C568.506 523.683 569.315 523.826 571 524C569.494 523.317 568.685 523.174 567 523M571.667 524.333C571.222 524.778 572.278 524.722 572.333 524.667C572.778 524.222 571.722 524.278 571.667 524.333M650 524L651 528C651.393 526.076 651.146 525.641 650 524M670.333 524.667C670.278 524.722 670.222 525.778 670.667 525.333C670.722 525.278 670.778 524.222 670.333 524.667M703.333 524.667C703.278 524.722 703.222 525.778 703.667 525.333C703.722 525.278 703.778 524.222 703.333 524.667M562 525C563.248 525.685 563.548 525.749 565 526C563.752 525.315 563.452 525.251 562 525M573 525L574 526L573 525M597 525L597 528C597.696 526.446 597.696 526.554 597 525M574 526L575 527L574 526z"
     id="path822" />
  <path
     style="fill:#28bd68; stroke:none;"
     d="M656.333 526.667C656.278 526.722 656.222 527.778 656.667 527.333C656.722 527.278 656.778 526.222 656.333 526.667z"
     id="path824" />
  <path
     style="fill:#aa3a16; stroke:none;"
     d="M704.333 526.667C704.278 526.722 704.222 527.778 704.667 527.333C704.722 527.278 704.778 526.222 704.333 526.667z"
     id="path826" />
  <path
     style="fill:#28bd68; stroke:none;"
     d="M576 527C576.547 528.875 577.11 530.255 578 532C578.375 529.581 577.693 528.782 576 527z"
     id="path828" />
  <path
     style="fill:#aa3a16; stroke:none;"
     d="M657 528C657.545 529.635 657.365 529.455 659 530L659 528L657 528z"
     id="path830" />
  <path
     style="fill:#28bd68; stroke:none;"
     d="M704 528L704 531C704.696 529.446 704.696 529.554 704 528z"
     id="path832" />
  <path
     style="fill:#aa3a16; stroke:none;"
     d="M598 529L598 545C599.812 540.681 599.812 533.319 598 529M653.333 529.667C653.278 529.722 653.222 530.778 653.667 530.333C653.722 530.278 653.778 529.222 653.333 529.667M659 530L660 531L659 530M705.333 530.667C705.278 530.722 705.222 531.778 705.667 531.333C705.722 531.278 705.778 530.222 705.333 530.667z"
     id="path834" />
  <path
     style="fill:#28bd68; stroke:none;"
     d="M654 531C654.545 532.635 654.365 532.455 656 533C655.455 531.365 655.635 531.545 654 531z"
     id="path836" />
  <path
     style="fill:#aa3a16; stroke:none;"
     d="M660 531L661 532L660 531M654 532L655 533L654 532M661 532C663.308 533.759 665.092 533.917 668 534C665.749 532.911 663.465 532.481 661 532z"
     id="path838" />
  <path
     style="fill:#28bd68; stroke:none;"
     d="M705.333 532.667C705.278 532.722 705.222 533.778 705.667 533.333C705.722 533.278 705.778 532.222 705.333 532.667z"
     id="path840" />
  <path
     style="fill:#aa3a16; stroke:none;"
     d="M579.333 533.667C579.278 533.722 579.222 534.778 579.667 534.333C579.722 534.278 579.778 533.222 579.333 533.667M656 534L657 535L656 534z"
     id="path842" />
  <path
     style="fill:#28bd68; stroke:none;"
     d="M580 535L581 539C581.393 537.076 581.146 536.64 580 535z"
     id="path844" />
  <path
     style="fill:#aa3a16; stroke:none;"
     d="M657 535L658 536L657 535M706 535L706 540C706.83 537.97 706.83 537.03 706 535M658 536L659 537L658 536M661 539L662 540L661 539M662 540L663 541L662 540z"
     id="path846" />
  <path
     style="fill:#28bd68; stroke:none;"
     d="M705 540L705 543C705.696 541.446 705.696 541.554 705 540M582 541L582 545C582.71 543.24 582.71 542.76 582 541z"
     id="path848" />
  <path
     style="fill:#aa3a16; stroke:none;"
     d="M663 541L664 542L663 541M664 542L665 543L664 542M665 543C665.545 544.635 665.365 544.455 667 545L667 543L665 543M705.333 543.667C705.278 543.722 705.222 544.778 705.667 544.333C705.722 544.278 705.778 543.222 705.333 543.667M667 545C668.717 546.84 669.566 547.349 672 548C670.337 546.497 669.104 545.801 667 545M579.667 546.333C579.222 546.778 580.278 546.722 580.333 546.667C580.778 546.222 579.722 546.278 579.667 546.333z"
     id="path850" />
  <path
     style="fill:#28bd68; stroke:none;"
     d="M581 546L582 547L581 546z"
     id="path852" />
  <path
     style="fill:#aa3a16; stroke:none;"
     d="M596 547L595 553C596.654 550.823 596.994 549.575 596 547M703 547L702 551C703.146 549.359 703.393 548.924 703 547z"
     id="path854" />
  <path
     style="fill:#28bd68; stroke:none;"
     d="M574 551L577 549C574.86 547.882 574.473 548.749 574 551z"
     id="path856" />
  <path
     style="fill:#aa3a16; stroke:none;"
     d="M674 549L675 550L674 549M675 550C676.896 552.02 678.415 552.995 681 554C679.104 551.819 677.741 550.931 675 550z"
     id="path858" />
  <path
     style="fill:#28bd68; stroke:none;"
     d="M701 550L702 551L701 550z"
     id="path860" />
  <path
     style="fill:#aa3a16; stroke:none;"
     d="M574 551L575 552L574 551M575 552L576 553L575 552M594.333 553.667C594.278 553.722 594.222 554.778 594.667 554.333C594.722 554.278 594.778 553.222 594.333 553.667z"
     id="path862" />
  <path
     style="fill:#28bd68; stroke:none;"
     d="M681.667 553.333C681.222 553.778 682.278 553.722 682.333 553.667C682.778 553.222 681.722 553.278 681.667 553.333M698 553L699 554L698 553z"
     id="path864" />
  <path
     style="fill:#aa3a16; stroke:none;"
     d="M699 553L700 554L699 553M577 554L578 555L577 554M682.667 554.333C682.222 554.778 683.278 554.722 683.333 554.667C683.778 554.222 682.722 554.278 682.667 554.333z"
     id="path866" />
  <path
     style="fill:#28bd68; stroke:none;"
     d="M695 554C696.248 554.685 696.549 554.749 698 555C696.752 554.315 696.452 554.251 695 554z"
     id="path868" />
  <path
     style="fill:#aa3a16; stroke:none;"
     d="M578.667 555.333C578.222 555.778 579.278 555.722 579.333 555.667C579.778 555.222 578.722 555.278 578.667 555.333M684 555C687.432 556.44 691.3 556 695 556C691.568 554.56 687.7 555 684 555M592 556L593 557L592 556M581 557C583.308 558.759 585.092 558.917 588 559C585.748 557.911 583.465 557.481 581 557M588 557C589.248 557.685 589.549 557.749 591 558C589.752 557.315 589.451 557.251 588 557z"
     id="path870" />
  <path
     style="fill:#32251c; stroke:none;"
     d="M661 655C668.121 653.868 666.764 647.938 670.417 643.089C677.999 633.029 690.952 624.569 691 611C697.495 609.181 701.105 603.546 706.17 599.492C711.574 595.165 718.209 593.023 725 593C725 596.71 726 599.943 726 604C726 604.857 725.573 607.288 726 608C727.6 610.667 732.179 610 735 610C743.156 610 754.125 611.969 762 610C765.779 609.055 765.14 606.099 767 603L768 604L767 592C781.671 595.848 792.179 607.109 803.424 616.835C807.717 620.549 809.065 626.994 815 628C814.32 618.883 806.317 611.095 800.246 604.87C782.035 586.196 756.055 574.766 730 580.39C708.108 585.116 689.453 603.539 677.027 621.104C675.128 623.789 674.428 627.091 672.754 629.911C667.943 638.01 663.314 645.682 661 655z"
     id="path872" />
  <path
     style="fill:#e8dbaf; stroke:none;"
     d="M971 579C968.133 579 964.051 578.323 961.549 580.013C958.29 582.213 954.404 592.078 958.603 594.917C960.514 596.209 963.208 594.794 964.96 593.882C971.217 590.625 970.999 585.262 971 579z"
     id="path874" />
  <path
     style="fill:#28bd68; stroke:none;"
     d="M745 587C747.89 588.213 750.874 587.998 754 588C751.11 586.787 748.126 587.002 745 587z"
     id="path878" />
  <path
     style="fill:#aa3a16; stroke:none;"
     d="M754 587C755.769 587.779 757.036 587.912 759 588C757.231 587.221 755.964 587.088 754 587z"
     id="path880" />
  <path
     style="fill:#e8dbaf; stroke:none;"
     d="M741 588.424C738.809 588.717 735.408 588.584 733.603 590.027C730.771 592.292 731.075 601.692 734.434 603.397C736.565 604.478 739.693 603.999 742 604C747.134 604.002 752.875 604.717 757.941 603.852C762.951 602.997 762.808 591.729 759.397 589.028C755.783 586.166 745.295 587.851 741 588.424z"
     id="path882" />
  <path
     style="fill:#aa3a16; stroke:none;"
     d="M761.333 590.667C761.278 590.722 761.222 591.778 761.667 591.333C761.722 591.278 761.778 590.222 761.333 590.667M731 591L731 602C732.431 598.59 732.431 594.41 731 591z"
     id="path884" />
  <path
     style="fill:#28bd68; stroke:none;"
     d="M761 592L761 599C762.059 596.466 762.059 594.534 761 592z"
     id="path886" />
  <path
     style="fill:#aa3a16; stroke:none;"
     d="M762 599L762 603C762.71 601.24 762.71 600.76 762 599M732 602C732.797 605.72 735.61 605 739 605L760 605C751.274 601.338 740.573 606.767 732 602z"
     id="path888" />
  <path
     style="fill:#32251c; stroke:none;"
     d="M287 628C287.627 630.936 288.147 632.013 291 633C290.492 629.987 289.841 629.127 287 628M112 630C115.744 633.817 119.573 636.606 125 637C123.157 630.837 117.923 628.961 112 630z"
     id="path890" />
  <path
     style="fill:#e8dbaf; stroke:none;"
     d="M537 662C536.998 659.715 537.202 657.263 536.721 655.013C535.941 651.36 528.204 643.196 525.161 649.319C522.344 654.987 532.492 661.645 537 662z"
     id="path892" />
  <path
     style="fill:#aa3a16; stroke:none;"
     d="M986 675C981.71 677.308 981.057 679.218 981 684L978 684C977.385 688.893 977.615 693.109 978 698C986.485 694.774 989.311 682.891 986 675z"
     id="path896" />
  <path
     style="fill:#28bd68; stroke:none;"
     d="M223 684C224 687.036 224.863 687.494 228 687L228 685C226.199 684.438 224.878 684.176 223 684z"
     id="path898" />
  <path
     style="fill:#32251c; stroke:none;"
     d="M1290 684L1290 689C1294.31 688.895 1297.19 688.657 1298 684L1290 684z"
     id="path900" />
  <path
     style="fill:#e8dbaf; stroke:none;"
     d="M848 693C847.974 690.797 848.377 687.574 846.397 686.029C842.976 683.359 830.3 685.834 828.086 689.518C824.581 695.349 836.448 694.844 839 694.335C842.044 693.728 844.891 693.136 848 693z"
     id="path902" />
  <path
     style="fill:#32251c; stroke:none;"
     d="M1351 687C1341.55 688.39 1349.87 696.792 1351 687M224 692C224.627 694.936 225.147 696.013 228 697C227.503 693.934 226.964 692.968 224 692z"
     id="path904" />
  <path
     style="fill:#e8dbaf; stroke:none;"
     d="M753 710C756.007 710.237 758.983 710.861 762 710.957C765.895 711.081 778.787 708.29 772.393 701.894C769.071 698.571 757.928 698.879 754.893 702.434C753.066 704.574 753.079 707.355 753 710z"
     id="path906" />
  <path
     style="fill:#28bd68; stroke:none;"
     d="M180 704L180 710C183.402 708.929 184.282 707.456 185 704L180 704z"
     id="path908" />
  <path
     style="fill:#32251c; stroke:none;"
     d="M187 717L187 711C181.699 711.887 182.227 715.549 187 717M179 724C180.215 727.468 181.458 728.952 185 730C184.193 726.127 182.941 724.642 179 724z"
     id="path910" />
  <path
     style="fill:#28bd68; stroke:none;"
     d="M135 731L135 735L139 735C138.161 732.374 137.626 731.839 135 731M997 740C1000.43 741.44 1004.3 741 1008 741C1004.57 739.56 1000.7 740 997 740z"
     id="path912" />
</svg>
